<?xml version="1.0" encoding="UTF-8" standalone="no"?>
<!DOCTYPE svg PUBLIC "-//W3C//DTD SVG 1.1//EN"
 "http://www.w3.org/Graphics/SVG/1.1/DTD/svg11.dtd">
<!-- Generated by graphviz version 2.38.0 (20140413.2041)
 -->
<!-- Title: G Pages: 1 -->
<svg width="692pt" height="260pt"
 viewBox="0.00 0.00 692.00 260.00" xmlns="http://www.w3.org/2000/svg" xmlns:xlink="http://www.w3.org/1999/xlink">
<g id="graph0" class="graph" transform="scale(1 1) rotate(0) translate(4 256)">
<title>G</title>
<polygon fill="white" stroke="none" points="-4,4 -4,-256 688,-256 688,4 -4,4"/>
<!-- 0 -->
<g id="node1" class="node"><title>0</title>
<ellipse fill="none" stroke="black" stroke-width="4" cx="18" cy="-18" rx="18" ry="18"/>
<text text-anchor="middle" x="18" y="-14.3" font-family="Times,serif" font-size="14.00">0</text>
</g>
<!-- 2 -->
<g id="node3" class="node"><title>2</title>
<ellipse fill="none" stroke="black" stroke-width="2" cx="306" cy="-18" rx="18" ry="18"/>
<text text-anchor="middle" x="306" y="-14.3" font-family="Times,serif" font-size="14.00">2</text>
</g>
<!-- 0&#45;&gt;2 -->
<g id="edge1" class="edge"><title>0&#45;&gt;2</title>
<path fill="none" stroke="red" d="M36.0157,-21.4866C84.7061,-25.583 219.204,-25.8229 277.943,-22.2062"/>
<polygon fill="red" stroke="red" points="278.267,-25.692 287.991,-21.4861 277.766,-18.7099 278.267,-25.692"/>
</g>
<!-- 5 -->
<g id="node6" class="node"><title>5</title>
<ellipse fill="none" stroke="black" stroke-width="2" cx="666" cy="-18" rx="18" ry="18"/>
<text text-anchor="middle" x="666" y="-14.3" font-family="Times,serif" font-size="14.00">5</text>
</g>
<!-- 0&#45;&gt;5 -->
<g id="edge3" class="edge"><title>0&#45;&gt;5</title>
<path fill="none" stroke="red" d="M36.0075,-20.4216C126.115,-26.0086 528.064,-26.1869 638.082,-20.9566"/>
<polygon fill="red" stroke="red" points="638.283,-24.451 648.079,-20.4162 637.905,-17.4612 638.283,-24.451"/>
</g>
<!-- 1 -->
<g id="node2" class="node"><title>1</title>
<ellipse fill="none" stroke="black" stroke-width="2" cx="162" cy="-90" rx="18" ry="18"/>
<text text-anchor="middle" x="162" y="-86.3" font-family="Times,serif" font-size="14.00">1</text>
</g>
<!-- 2&#45;&gt;0 -->
<g id="edge2" class="edge"><title>2&#45;&gt;0</title>
<path fill="none" stroke="red" d="M287.984,-14.5134C239.294,-10.417 104.796,-10.1771 46.0573,-13.7938"/>
<polygon fill="red" stroke="red" points="45.7331,-10.308 36.0089,-14.5139 46.2335,-17.2901 45.7331,-10.308"/>
</g>
<!-- 3 -->
<g id="node4" class="node"><title>3</title>
<ellipse fill="none" stroke="black" stroke-width="2" cx="306" cy="-162" rx="18" ry="18"/>
<text text-anchor="middle" x="306" y="-158.3" font-family="Times,serif" font-size="14.00">3</text>
</g>
<!-- 2&#45;&gt;3 -->
<g id="edge5" class="edge"><title>2&#45;&gt;3</title>
<path fill="none" stroke="red" d="M301.386,-35.6572C298.865,-60.1639 298.576,-104.752 300.517,-133.87"/>
<polygon fill="red" stroke="red" points="297.059,-134.521 301.371,-144.198 304.035,-133.944 297.059,-134.521"/>
</g>
<!-- 2&#45;&gt;5 -->
<g id="edge7" class="edge"><title>2&#45;&gt;5</title>
<path fill="none" stroke="red" d="M323.852,-21.1483C382.031,-25.704 566.488,-25.9379 637.631,-21.8499"/>
<polygon fill="red" stroke="red" points="638.295,-25.3136 648.04,-21.1567 637.829,-18.3291 638.295,-25.3136"/>
</g>
<!-- 3&#45;&gt;2 -->
<g id="edge6" class="edge"><title>3&#45;&gt;2</title>
<path fill="none" stroke="red" d="M310.614,-144.343C313.135,-119.836 313.424,-75.2481 311.483,-46.1299"/>
<polygon fill="red" stroke="red" points="314.941,-45.4794 310.629,-35.8017 307.965,-46.056 314.941,-45.4794"/>
</g>
<!-- 7 -->
<g id="node8" class="node"><title>7</title>
<ellipse fill="none" stroke="black" stroke-width="4" cx="666" cy="-162" rx="18" ry="18"/>
<text text-anchor="middle" x="666" y="-158.3" font-family="Times,serif" font-size="14.00">7</text>
</g>
<!-- 3&#45;&gt;7 -->
<g id="edge9" class="edge"><title>3&#45;&gt;7</title>
<path fill="none" stroke="red" d="M323.852,-165.148C382.031,-169.704 566.488,-169.938 637.631,-165.85"/>
<polygon fill="red" stroke="red" points="638.295,-169.314 648.04,-165.157 637.829,-162.329 638.295,-169.314"/>
</g>
<!-- 4 -->
<g id="node5" class="node"><title>4</title>
<ellipse fill="none" stroke="black" stroke-width="2" cx="450" cy="-234" rx="18" ry="18"/>
<text text-anchor="middle" x="450" y="-230.3" font-family="Times,serif" font-size="14.00">4</text>
</g>
<!-- 6 -->
<g id="node7" class="node"><title>6</title>
<ellipse fill="none" stroke="black" stroke-width="2" cx="666" cy="-234" rx="18" ry="18"/>
<text text-anchor="middle" x="666" y="-230.3" font-family="Times,serif" font-size="14.00">6</text>
</g>
<!-- 4&#45;&gt;6 -->
<g id="edge11" class="edge"><title>4&#45;&gt;6</title>
<path fill="none" stroke="red" d="M467.676,-237.912C505.188,-241.409 593.01,-241.674 638.142,-238.706"/>
<polygon fill="red" stroke="red" points="638.686,-242.175 648.383,-237.906 638.14,-235.196 638.686,-242.175"/>
</g>
<!-- 5&#45;&gt;0 -->
<g id="edge4" class="edge"><title>5&#45;&gt;0</title>
<path fill="none" stroke="red" d="M647.992,-15.5784C557.885,-9.99143 155.936,-9.81307 45.9178,-15.0434"/>
<polygon fill="red" stroke="red" points="45.717,-11.549 35.9205,-15.5838 46.0949,-18.5388 45.717,-11.549"/>
</g>
<!-- 5&#45;&gt;2 -->
<g id="edge8" class="edge"><title>5&#45;&gt;2</title>
<path fill="none" stroke="red" d="M648.148,-14.8517C589.969,-10.296 405.512,-10.0621 334.369,-14.1501"/>
<polygon fill="red" stroke="red" points="333.705,-10.6864 323.96,-14.8433 334.171,-17.6709 333.705,-10.6864"/>
</g>
<!-- 5&#45;&gt;6 -->
<g id="edge15" class="edge"><title>5&#45;&gt;6</title>
<path fill="none" stroke="red" d="M662.088,-35.6762C658.591,-73.188 658.326,-161.01 661.294,-206.142"/>
<polygon fill="red" stroke="red" points="657.825,-206.686 662.094,-216.383 664.804,-206.14 657.825,-206.686"/>
</g>
<!-- 5&#45;&gt;7 -->
<g id="edge13" class="edge"><title>5&#45;&gt;7</title>
<path fill="none" stroke="red" d="M661.386,-35.6572C658.865,-60.1639 658.576,-104.752 660.517,-133.87"/>
<polygon fill="red" stroke="red" points="657.059,-134.521 661.371,-144.198 664.035,-133.944 657.059,-134.521"/>
</g>
<!-- 6&#45;&gt;4 -->
<g id="edge12" class="edge"><title>6&#45;&gt;4</title>
<path fill="none" stroke="red" d="M648.324,-230.088C610.812,-226.591 522.99,-226.326 477.858,-229.294"/>
<polygon fill="red" stroke="red" points="477.314,-225.825 467.617,-230.094 477.86,-232.804 477.314,-225.825"/>
</g>
<!-- 6&#45;&gt;5 -->
<g id="edge16" class="edge"><title>6&#45;&gt;5</title>
<path fill="none" stroke="red" d="M669.912,-216.324C673.409,-178.812 673.674,-90.9897 670.706,-45.8583"/>
<polygon fill="red" stroke="red" points="674.175,-45.3145 669.906,-35.6175 667.196,-45.8598 674.175,-45.3145"/>
</g>
<!-- 6&#45;&gt;7 -->
<g id="edge18" class="edge"><title>6&#45;&gt;7</title>
<path fill="none" stroke="red" d="M671.84,-216.937C672.703,-208.807 672.952,-198.876 672.588,-189.705"/>
<polygon fill="red" stroke="red" points="676.06,-189.176 671.879,-179.441 669.077,-189.658 676.06,-189.176"/>
</g>
<!-- 7&#45;&gt;3 -->
<g id="edge10" class="edge"><title>7&#45;&gt;3</title>
<path fill="none" stroke="red" d="M648.148,-158.852C589.969,-154.296 405.512,-154.062 334.369,-158.15"/>
<polygon fill="red" stroke="red" points="333.705,-154.686 323.96,-158.843 334.171,-161.671 333.705,-154.686"/>
</g>
<!-- 7&#45;&gt;5 -->
<g id="edge14" class="edge"><title>7&#45;&gt;5</title>
<path fill="none" stroke="red" d="M670.614,-144.343C673.135,-119.836 673.424,-75.2481 671.483,-46.1299"/>
<polygon fill="red" stroke="red" points="674.941,-45.4794 670.629,-35.8017 667.965,-46.056 674.941,-45.4794"/>
</g>
<!-- 7&#45;&gt;6 -->
<g id="edge17" class="edge"><title>7&#45;&gt;6</title>
<path fill="none" stroke="red" d="M660.16,-179.063C659.297,-187.193 659.048,-197.124 659.412,-206.295"/>
<polygon fill="red" stroke="red" points="655.94,-206.824 660.121,-216.559 662.923,-206.342 655.94,-206.824"/>
</g>
</g>
</svg>
