<?xml version="1.0" encoding="UTF-8" standalone="no"?>
<!DOCTYPE svg PUBLIC "-//W3C//DTD SVG 1.1//EN"
 "http://www.w3.org/Graphics/SVG/1.1/DTD/svg11.dtd">
<!-- Generated by graphviz version 2.38.0 (20140413.2041)
 -->
<!-- Title: G Pages: 1 -->
<svg width="800pt" height="1042pt"
 viewBox="0.00 0.00 800.00 1042.00" xmlns="http://www.w3.org/2000/svg" xmlns:xlink="http://www.w3.org/1999/xlink">
<g id="graph0" class="graph" transform="scale(1 1) rotate(0) translate(4 1038)">
<title>G</title>
<polygon fill="white" stroke="none" points="-4,4 -4,-1038 796,-1038 796,4 -4,4"/>
<!-- 0 -->
<g id="node1" class="node"><title>0</title>
<ellipse fill="none" stroke="black" stroke-width="4" cx="229.63" cy="-206.011" rx="18" ry="18"/>
<text text-anchor="middle" x="229.63" y="-202.311" font-family="Times,serif" font-size="14.00">0</text>
</g>
<!-- 8 -->
<g id="node3" class="node"><title>8</title>
<ellipse fill="none" stroke="red" stroke-width="2" cx="409.432" cy="-209.013" rx="18" ry="18"/>
<text text-anchor="middle" x="409.432" y="-205.313" font-family="Times,serif" font-size="14.00">8</text>
</g>
<!-- 0&#45;&gt;8 -->
<g id="edge1" class="edge"><title>0&#45;&gt;8</title>
<path fill="none" stroke="black" d="M247.86,-206.315C279.307,-206.84 343.954,-207.92 381.238,-208.542"/>
<polygon fill="black" stroke="black" points="381.364,-212.045 391.421,-208.712 381.481,-205.046 381.364,-212.045"/>
<text text-anchor="middle" x="322.049" y="-211.229" font-family="Times,serif" font-size="14.00"> 4 </text>
</g>
<!-- 16 -->
<g id="node4" class="node"><title>16</title>
<ellipse fill="none" stroke="blue" stroke-width="2" cx="144.997" cy="-361.96" rx="20.2975" ry="20.2975"/>
<text text-anchor="middle" x="144.997" y="-358.26" font-family="Times,serif" font-size="14.00">16</text>
</g>
<!-- 0&#45;&gt;16 -->
<g id="edge2" class="edge"><title>0&#45;&gt;16</title>
<path fill="none" stroke="black" d="M220.892,-222.113C206.439,-248.745 177.4,-302.253 159.731,-334.811"/>
<polygon fill="black" stroke="black" points="156.55,-333.336 154.856,-343.794 162.702,-336.674 156.55,-333.336"/>
<text text-anchor="middle" x="182.811" y="-282.262" font-family="Times,serif" font-size="14.00"> 0 </text>
</g>
<!-- 24 -->
<g id="node5" class="node"><title>24</title>
<ellipse fill="none" stroke="green" stroke-width="2" cx="57.8272" cy="-97.0432" rx="20.2975" ry="20.2975"/>
<text text-anchor="middle" x="57.8272" y="-93.3432" font-family="Times,serif" font-size="14.00">24</text>
</g>
<!-- 0&#45;&gt;24 -->
<g id="edge3" class="edge"><title>0&#45;&gt;24</title>
<path fill="none" stroke="black" d="M214.384,-196.341C184.934,-177.662 119.936,-136.436 83.633,-113.411"/>
<polygon fill="black" stroke="black" points="85.3802,-110.374 75.0609,-107.974 81.6309,-116.286 85.3802,-110.374"/>
<text text-anchor="middle" x="141.508" y="-158.676" font-family="Times,serif" font-size="14.00"> 2 </text>
</g>
<!-- 32 -->
<g id="node6" class="node"><title>32</title>
<ellipse fill="none" stroke="orange" stroke-width="2" cx="345.087" cy="-148.006" rx="20.2975" ry="20.2975"/>
<text text-anchor="middle" x="345.087" y="-144.306" font-family="Times,serif" font-size="14.00">32</text>
</g>
<!-- 0&#45;&gt;32 -->
<g id="edge4" class="edge"><title>0&#45;&gt;32</title>
<path fill="none" stroke="black" d="M246.172,-197.7C264.941,-188.271 295.828,-172.753 318.098,-161.565"/>
<polygon fill="black" stroke="black" points="319.691,-164.682 327.055,-157.065 316.548,-158.427 319.691,-164.682"/>
<text text-anchor="middle" x="274.635" y="-168.432" font-family="Times,serif" font-size="14.00"> 0 </text>
</g>
<!-- 7 -->
<g id="node2" class="node"><title>7</title>
<ellipse fill="none" stroke="black" stroke-width="4" cx="486.553" cy="-313.508" rx="18" ry="18"/>
<text text-anchor="middle" x="486.553" y="-309.808" font-family="Times,serif" font-size="14.00">7</text>
</g>
<!-- 15 -->
<g id="node27" class="node"><title>15</title>
<ellipse fill="none" stroke="red" stroke-width="2" cx="422.974" cy="-480.783" rx="20.2975" ry="20.2975"/>
<text text-anchor="middle" x="422.974" y="-477.083" font-family="Times,serif" font-size="14.00">15</text>
</g>
<!-- 7&#45;&gt;15 -->
<g id="edge55" class="edge"><title>7&#45;&gt;15</title>
<path fill="none" stroke="black" d="M480.107,-330.468C469.246,-359.043 447.184,-417.086 433.879,-452.093"/>
<polygon fill="black" stroke="black" points="430.495,-451.144 430.213,-461.736 437.038,-453.632 430.495,-451.144"/>
<text text-anchor="middle" x="449.493" y="-395.08" font-family="Times,serif" font-size="14.00"> 0 </text>
</g>
<!-- 23 -->
<g id="node35" class="node"><title>23</title>
<ellipse fill="none" stroke="blue" stroke-width="2" cx="397.294" cy="-118.045" rx="20.2975" ry="20.2975"/>
<text text-anchor="middle" x="397.294" y="-114.345" font-family="Times,serif" font-size="14.00">23</text>
</g>
<!-- 7&#45;&gt;23 -->
<g id="edge56" class="edge"><title>7&#45;&gt;23</title>
<path fill="none" stroke="black" d="M478.943,-296.843C463.604,-263.254 428.836,-187.115 409.997,-145.861"/>
<polygon fill="black" stroke="black" points="413.129,-144.294 405.791,-136.652 406.761,-147.202 413.129,-144.294"/>
<text text-anchor="middle" x="436.97" y="-225.152" font-family="Times,serif" font-size="14.00"> 0 </text>
</g>
<!-- 31 -->
<g id="node36" class="node"><title>31</title>
<ellipse fill="none" stroke="green" stroke-width="2" cx="581.521" cy="-131.24" rx="20.2975" ry="20.2975"/>
<text text-anchor="middle" x="581.521" y="-127.54" font-family="Times,serif" font-size="14.00">31</text>
</g>
<!-- 7&#45;&gt;31 -->
<g id="edge57" class="edge"><title>7&#45;&gt;31</title>
<path fill="none" stroke="black" d="M494.981,-297.333C511.302,-266.009 547.374,-196.777 567.41,-158.322"/>
<polygon fill="black" stroke="black" points="570.62,-159.735 572.137,-149.25 564.412,-156.501 570.62,-159.735"/>
<text text-anchor="middle" x="523.696" y="-231.627" font-family="Times,serif" font-size="14.00"> 0 </text>
</g>
<!-- 39 -->
<g id="node37" class="node"><title>39</title>
<ellipse fill="none" stroke="orange" stroke-width="2" cx="686.785" cy="-238.965" rx="20.2975" ry="20.2975"/>
<text text-anchor="middle" x="686.785" y="-235.265" font-family="Times,serif" font-size="14.00">39</text>
</g>
<!-- 7&#45;&gt;39 -->
<g id="edge58" class="edge"><title>7&#45;&gt;39</title>
<path fill="none" stroke="black" d="M504.657,-310.979C540.217,-301.376 619.205,-272.292 660.506,-253.927"/>
<polygon fill="black" stroke="black" points="662.035,-257.077 669.671,-249.733 659.121,-250.712 662.035,-257.077"/>
<text text-anchor="middle" x="575.082" y="-286.253" font-family="Times,serif" font-size="14.00"> 0 </text>
</g>
<!-- 2 -->
<g id="node7" class="node"><title>2</title>
<ellipse fill="none" stroke="black" stroke-width="2" cx="504.824" cy="-203.248" rx="18" ry="18"/>
<text text-anchor="middle" x="504.824" y="-199.548" font-family="Times,serif" font-size="14.00">2</text>
</g>
<!-- 8&#45;&gt;2 -->
<g id="edge6" class="edge"><title>8&#45;&gt;2</title>
<path fill="none" stroke="red" d="M427.824,-207.901C441.637,-207.066 460.802,-205.908 476.557,-204.956"/>
<polygon fill="red" stroke="red" points="477.041,-208.433 486.811,-204.336 476.618,-201.446 477.041,-208.433"/>
</g>
<!-- 5 -->
<g id="node11" class="node"><title>5</title>
<ellipse fill="none" stroke="black" stroke-width="2" cx="487.674" cy="-389.702" rx="18" ry="18"/>
<text text-anchor="middle" x="487.674" y="-386.002" font-family="Times,serif" font-size="14.00">5</text>
</g>
<!-- 8&#45;&gt;5 -->
<g id="edge10" class="edge"><title>8&#45;&gt;5</title>
<path fill="none" stroke="red" d="M416.652,-225.688C430.335,-257.286 460.127,-326.087 476.442,-363.762"/>
<polygon fill="red" stroke="red" points="473.286,-365.282 480.471,-373.067 479.709,-362.5 473.286,-365.282"/>
</g>
<!-- 6 -->
<g id="node13" class="node"><title>6</title>
<ellipse fill="none" stroke="black" stroke-width="2" cx="223.051" cy="-471.591" rx="18" ry="18"/>
<text text-anchor="middle" x="223.051" y="-467.891" font-family="Times,serif" font-size="14.00">6</text>
</g>
<!-- 16&#45;&gt;6 -->
<g id="edge12" class="edge"><title>16&#45;&gt;6</title>
<path fill="none" stroke="blue" d="M156.852,-378.611C170.136,-397.269 191.76,-427.641 206.658,-448.566"/>
<polygon fill="blue" stroke="blue" points="203.936,-450.778 212.587,-456.894 209.639,-446.718 203.936,-450.778"/>
</g>
<!-- 4 -->
<g id="node9" class="node"><title>4</title>
<ellipse fill="none" stroke="black" stroke-width="2" cx="134.471" cy="-238.946" rx="18" ry="18"/>
<text text-anchor="middle" x="134.471" y="-235.246" font-family="Times,serif" font-size="14.00">4</text>
</g>
<!-- 24&#45;&gt;4 -->
<g id="edge8" class="edge"><title>24&#45;&gt;4</title>
<path fill="none" stroke="green" d="M67.5342,-115.015C81.0691,-140.075 105.669,-185.619 120.98,-213.968"/>
<polygon fill="green" stroke="green" points="117.955,-215.733 125.787,-222.868 124.114,-212.406 117.955,-215.733"/>
</g>
<!-- 32&#45;&gt;7 -->
<g id="edge5" class="edge"><title>32&#45;&gt;7</title>
<path fill="none" stroke="orange" d="M358.396,-163.576C383.759,-193.248 439.065,-257.951 468.027,-291.834"/>
<polygon fill="orange" stroke="orange" points="465.63,-294.417 474.788,-299.744 470.951,-289.868 465.63,-294.417"/>
</g>
<!-- 10 -->
<g id="node8" class="node"><title>10</title>
<ellipse fill="none" stroke="red" stroke-width="2" cx="434.551" cy="-305.175" rx="20.2975" ry="20.2975"/>
<text text-anchor="middle" x="434.551" y="-301.475" font-family="Times,serif" font-size="14.00">10</text>
</g>
<!-- 2&#45;&gt;10 -->
<g id="edge19" class="edge"><title>2&#45;&gt;10</title>
<path fill="none" stroke="black" d="M494.455,-218.287C483.264,-234.519 465.254,-260.642 451.9,-280.011"/>
<polygon fill="black" stroke="black" points="448.928,-278.156 446.133,-288.376 454.691,-282.129 448.928,-278.156"/>
<text text-anchor="middle" x="465.677" y="-252.949" font-family="Times,serif" font-size="14.00"> 3 </text>
</g>
<!-- 18 -->
<g id="node19" class="node"><title>18</title>
<ellipse fill="none" stroke="blue" stroke-width="2" cx="384.542" cy="-382.849" rx="20.2975" ry="20.2975"/>
<text text-anchor="middle" x="384.542" y="-379.149" font-family="Times,serif" font-size="14.00">18</text>
</g>
<!-- 2&#45;&gt;18 -->
<g id="edge20" class="edge"><title>2&#45;&gt;18</title>
<path fill="none" stroke="black" d="M494.775,-218.252C474.181,-249.003 426.983,-319.478 401.539,-357.47"/>
<polygon fill="black" stroke="black" points="398.521,-355.687 395.864,-365.944 404.337,-359.583 398.521,-355.687"/>
<text text-anchor="middle" x="455.657" y="-276.661" font-family="Times,serif" font-size="14.00"> 1 </text>
</g>
<!-- 26 -->
<g id="node20" class="node"><title>26</title>
<ellipse fill="none" stroke="green" stroke-width="2" cx="585.849" cy="-20.5369" rx="20.2975" ry="20.2975"/>
<text text-anchor="middle" x="585.849" y="-16.8369" font-family="Times,serif" font-size="14.00">26</text>
</g>
<!-- 2&#45;&gt;26 -->
<g id="edge21" class="edge"><title>2&#45;&gt;26</title>
<path fill="none" stroke="black" d="M512.157,-186.711C526.032,-155.424 556.264,-87.2502 573.381,-48.651"/>
<polygon fill="black" stroke="black" points="576.781,-49.6194 577.635,-39.059 570.382,-46.7816 576.781,-49.6194"/>
<text text-anchor="middle" x="535.269" y="-121.481" font-family="Times,serif" font-size="14.00"> 1 </text>
</g>
<!-- 34 -->
<g id="node21" class="node"><title>34</title>
<ellipse fill="none" stroke="orange" stroke-width="2" cx="619.871" cy="-184.208" rx="20.2975" ry="20.2975"/>
<text text-anchor="middle" x="619.871" y="-180.508" font-family="Times,serif" font-size="14.00">34</text>
</g>
<!-- 2&#45;&gt;34 -->
<g id="edge22" class="edge"><title>2&#45;&gt;34</title>
<path fill="none" stroke="black" d="M522.8,-200.273C540.641,-197.32 568.319,-192.74 589.562,-189.224"/>
<polygon fill="black" stroke="black" points="590.405,-192.632 599.7,-187.547 589.262,-185.726 590.405,-192.632"/>
<text text-anchor="middle" x="548.681" y="-198.549" font-family="Times,serif" font-size="14.00"> 0 </text>
</g>
<!-- 10&#45;&gt;0 -->
<g id="edge7" class="edge"><title>10&#45;&gt;0</title>
<path fill="none" stroke="red" d="M416.366,-296.375C379.743,-278.653 297.033,-238.628 255.072,-218.323"/>
<polygon fill="red" stroke="red" points="256.575,-215.162 246.049,-213.956 253.526,-221.463 256.575,-215.162"/>
</g>
<!-- 10&#45;&gt;5 -->
<g id="edge26" class="edge"><title>10&#45;&gt;5</title>
<path fill="none" stroke="red" d="M445.301,-322.28C453.16,-334.785 463.923,-351.91 472.634,-365.771"/>
<polygon fill="red" stroke="red" points="469.727,-367.723 478.012,-374.327 475.654,-363.998 469.727,-367.723"/>
</g>
<!-- 3 -->
<g id="node22" class="node"><title>3</title>
<ellipse fill="none" stroke="black" stroke-width="2" cx="593.338" cy="-440.225" rx="18" ry="18"/>
<text text-anchor="middle" x="593.338" y="-436.525" font-family="Times,serif" font-size="14.00">3</text>
</g>
<!-- 10&#45;&gt;3 -->
<g id="edge24" class="edge"><title>10&#45;&gt;3</title>
<path fill="none" stroke="red" d="M450.065,-318.37C478.433,-342.497 538.741,-393.789 571.335,-421.511"/>
<polygon fill="red" stroke="red" points="569.481,-424.529 579.366,-428.342 574.016,-419.197 569.481,-424.529"/>
</g>
<!-- 28 -->
<g id="node10" class="node"><title>28</title>
<ellipse fill="none" stroke="green" stroke-width="2" cx="110.178" cy="-61.9734" rx="20.2975" ry="20.2975"/>
<text text-anchor="middle" x="110.178" y="-58.2734" font-family="Times,serif" font-size="14.00">28</text>
</g>
<!-- 4&#45;&gt;28 -->
<g id="edge39" class="edge"><title>4&#45;&gt;28</title>
<path fill="none" stroke="black" d="M132.008,-221.003C127.858,-190.771 119.429,-129.363 114.345,-92.3268"/>
<polygon fill="black" stroke="black" points="117.772,-91.556 112.945,-82.1249 110.837,-92.508 117.772,-91.556"/>
<text text-anchor="middle" x="115.676" y="-160.465" font-family="Times,serif" font-size="14.00"> 1 </text>
</g>
<!-- 12 -->
<g id="node28" class="node"><title>12</title>
<ellipse fill="none" stroke="red" stroke-width="2" cx="33.0195" cy="-398.983" rx="20.2975" ry="20.2975"/>
<text text-anchor="middle" x="33.0195" y="-395.283" font-family="Times,serif" font-size="14.00">12</text>
</g>
<!-- 4&#45;&gt;12 -->
<g id="edge37" class="edge"><title>4&#45;&gt;12</title>
<path fill="none" stroke="black" d="M124.743,-254.291C107.426,-281.608 71.0689,-338.961 49.6953,-372.677"/>
<polygon fill="black" stroke="black" points="46.4905,-371.196 44.0924,-381.516 52.4026,-374.944 46.4905,-371.196"/>
<text text-anchor="middle" x="94.7193" y="-302.284" font-family="Times,serif" font-size="14.00"> 0 </text>
</g>
<!-- 20 -->
<g id="node29" class="node"><title>20</title>
<ellipse fill="none" stroke="blue" stroke-width="2" cx="20.1359" cy="-152.184" rx="20.2975" ry="20.2975"/>
<text text-anchor="middle" x="20.1359" y="-148.484" font-family="Times,serif" font-size="14.00">20</text>
</g>
<!-- 4&#45;&gt;20 -->
<g id="edge38" class="edge"><title>4&#45;&gt;20</title>
<path fill="none" stroke="black" d="M119.99,-227.957C101.022,-213.563 67.4855,-188.114 44.5555,-170.714"/>
<polygon fill="black" stroke="black" points="46.4209,-167.736 36.3391,-164.479 42.1894,-173.312 46.4209,-167.736"/>
<text text-anchor="middle" x="74.7729" y="-203.136" font-family="Times,serif" font-size="14.00"> 0 </text>
</g>
<!-- 36 -->
<g id="node30" class="node"><title>36</title>
<ellipse fill="none" stroke="orange" stroke-width="2" cx="284.709" cy="-208.491" rx="20.2975" ry="20.2975"/>
<text text-anchor="middle" x="284.709" y="-204.791" font-family="Times,serif" font-size="14.00">36</text>
</g>
<!-- 4&#45;&gt;36 -->
<g id="edge40" class="edge"><title>4&#45;&gt;36</title>
<path fill="none" stroke="black" d="M152.295,-235.333C177.465,-230.23 223.763,-220.845 254.396,-214.636"/>
<polygon fill="black" stroke="black" points="255.413,-218.001 264.518,-212.584 254.022,-211.141 255.413,-218.001"/>
<text text-anchor="middle" x="195.846" y="-228.784" font-family="Times,serif" font-size="14.00"> 1 </text>
</g>
<!-- 28&#45;&gt;0 -->
<g id="edge9" class="edge"><title>28&#45;&gt;0</title>
<path fill="none" stroke="green" d="M123.189,-77.6621C144.543,-103.411 187.077,-154.699 211.415,-184.047"/>
<polygon fill="green" stroke="green" points="208.975,-186.587 218.053,-192.051 214.363,-182.119 208.975,-186.587"/>
</g>
<!-- 13 -->
<g id="node12" class="node"><title>13</title>
<ellipse fill="none" stroke="red" stroke-width="2" cx="340.774" cy="-314.91" rx="20.2975" ry="20.2975"/>
<text text-anchor="middle" x="340.774" y="-311.21" font-family="Times,serif" font-size="14.00">13</text>
</g>
<!-- 5&#45;&gt;13 -->
<g id="edge45" class="edge"><title>5&#45;&gt;13</title>
<path fill="none" stroke="black" d="M471.392,-381.412C446.452,-368.714 398.497,-344.299 368.147,-328.847"/>
<polygon fill="black" stroke="black" points="369.463,-325.589 358.964,-324.171 366.287,-331.827 369.463,-325.589"/>
<text text-anchor="middle" x="412.27" y="-358.929" font-family="Times,serif" font-size="14.00"> 1 </text>
</g>
<!-- 21 -->
<g id="node32" class="node"><title>21</title>
<ellipse fill="none" stroke="blue" stroke-width="2" cx="346.524" cy="-260.404" rx="20.2975" ry="20.2975"/>
<text text-anchor="middle" x="346.524" y="-256.704" font-family="Times,serif" font-size="14.00">21</text>
</g>
<!-- 5&#45;&gt;21 -->
<g id="edge46" class="edge"><title>5&#45;&gt;21</title>
<path fill="none" stroke="black" d="M474.395,-377.538C450.204,-355.378 398.712,-308.21 368.977,-280.972"/>
<polygon fill="black" stroke="black" points="371.3,-278.354 361.562,-274.18 366.572,-283.516 371.3,-278.354"/>
<text text-anchor="middle" x="414.186" y="-333.055" font-family="Times,serif" font-size="14.00"> 0 </text>
</g>
<!-- 29 -->
<g id="node33" class="node"><title>29</title>
<ellipse fill="none" stroke="green" stroke-width="2" cx="658.663" cy="-499.369" rx="20.2975" ry="20.2975"/>
<text text-anchor="middle" x="658.663" y="-495.669" font-family="Times,serif" font-size="14.00">29</text>
</g>
<!-- 5&#45;&gt;29 -->
<g id="edge47" class="edge"><title>5&#45;&gt;29</title>
<path fill="none" stroke="black" d="M502.849,-399.434C532.159,-418.233 596.849,-459.723 632.98,-482.897"/>
<polygon fill="black" stroke="black" points="631.204,-485.916 641.511,-488.368 634.983,-480.023 631.204,-485.916"/>
<text text-anchor="middle" x="560.414" y="-444.965" font-family="Times,serif" font-size="14.00"> 0 </text>
</g>
<!-- 37 -->
<g id="node34" class="node"><title>37</title>
<ellipse fill="none" stroke="orange" stroke-width="2" cx="636.002" cy="-350.03" rx="20.2975" ry="20.2975"/>
<text text-anchor="middle" x="636.002" y="-346.33" font-family="Times,serif" font-size="14.00">37</text>
</g>
<!-- 5&#45;&gt;37 -->
<g id="edge48" class="edge"><title>5&#45;&gt;37</title>
<path fill="none" stroke="black" d="M505.272,-384.995C530.122,-378.349 575.832,-366.123 606.075,-358.034"/>
<polygon fill="black" stroke="black" points="607.312,-361.327 616.068,-355.361 605.503,-354.564 607.312,-361.327"/>
<text text-anchor="middle" x="548.174" y="-375.315" font-family="Times,serif" font-size="14.00"> 2 </text>
</g>
<!-- 13&#45;&gt;0 -->
<g id="edge11" class="edge"><title>13&#45;&gt;0</title>
<path fill="none" stroke="red" d="M326.244,-300.673C306.768,-281.591 272.099,-247.622 250.018,-225.987"/>
<polygon fill="red" stroke="red" points="252.371,-223.392 242.779,-218.894 247.472,-228.392 252.371,-223.392"/>
</g>
<!-- 13&#45;&gt;7 -->
<g id="edge50" class="edge"><title>13&#45;&gt;7</title>
<path fill="none" stroke="red" d="M361.044,-314.715C386.295,-314.472 429.588,-314.056 458.14,-313.781"/>
<polygon fill="red" stroke="red" points="458.327,-317.28 468.293,-313.684 458.26,-310.28 458.327,-317.28"/>
</g>
<!-- 13&#45;&gt;2 -->
<g id="edge27" class="edge"><title>13&#45;&gt;2</title>
<path fill="none" stroke="red" d="M357.712,-303.38C387.17,-283.329 447.888,-242.002 481.374,-219.209"/>
<polygon fill="red" stroke="red" points="483.36,-222.091 489.657,-213.571 479.421,-216.305 483.36,-222.091"/>
</g>
<!-- 13&#45;&gt;6 -->
<g id="edge52" class="edge"><title>13&#45;&gt;6</title>
<path fill="none" stroke="red" d="M328.619,-331.087C307.569,-359.103 264.279,-416.719 240.186,-448.784"/>
<polygon fill="red" stroke="red" points="237.143,-447.008 233.934,-457.105 242.739,-451.213 237.143,-447.008"/>
</g>
<!-- 14 -->
<g id="node31" class="node"><title>14</title>
<ellipse fill="none" stroke="red" stroke-width="2" cx="287.482" cy="-353.245" rx="20.2975" ry="20.2975"/>
<text text-anchor="middle" x="287.482" y="-349.545" font-family="Times,serif" font-size="14.00">14</text>
</g>
<!-- 6&#45;&gt;14 -->
<g id="edge63" class="edge"><title>6&#45;&gt;14</title>
<path fill="none" stroke="black" d="M231.74,-455.63C242.246,-436.333 260.092,-403.554 272.759,-380.287"/>
<polygon fill="black" stroke="black" points="275.96,-381.728 277.667,-371.272 269.812,-378.381 275.96,-381.728"/>
<text text-anchor="middle" x="244.75" y="-421.758" font-family="Times,serif" font-size="14.00"> 2 </text>
</g>
<!-- 22 -->
<g id="node38" class="node"><title>22</title>
<ellipse fill="none" stroke="blue" stroke-width="2" cx="80.4987" cy="-328.992" rx="20.2975" ry="20.2975"/>
<text text-anchor="middle" x="80.4987" y="-325.292" font-family="Times,serif" font-size="14.00">22</text>
</g>
<!-- 6&#45;&gt;22 -->
<g id="edge64" class="edge"><title>6&#45;&gt;22</title>
<path fill="none" stroke="black" d="M209.895,-458.431C185.241,-433.769 131.882,-380.392 101.957,-350.457"/>
<polygon fill="black" stroke="black" points="104.431,-347.981 94.8857,-343.384 99.4804,-352.93 104.431,-347.981"/>
<text text-anchor="middle" x="148.426" y="-408.244" font-family="Times,serif" font-size="14.00"> 0 </text>
</g>
<!-- 30 -->
<g id="node39" class="node"><title>30</title>
<ellipse fill="none" stroke="green" stroke-width="2" cx="46.9081" cy="-602.461" rx="20.2975" ry="20.2975"/>
<text text-anchor="middle" x="46.9081" y="-598.761" font-family="Times,serif" font-size="14.00">30</text>
</g>
<!-- 6&#45;&gt;30 -->
<g id="edge65" class="edge"><title>6&#45;&gt;30</title>
<path fill="none" stroke="black" d="M208.336,-482.523C178.1,-504.988 108.707,-556.545 71.5152,-584.178"/>
<polygon fill="black" stroke="black" points="69.1676,-581.562 63.2279,-590.336 73.3423,-587.181 69.1676,-581.562"/>
<text text-anchor="middle" x="132.425" y="-537.151" font-family="Times,serif" font-size="14.00"> 0 </text>
</g>
<!-- 38 -->
<g id="node40" class="node"><title>38</title>
<ellipse fill="none" stroke="orange" stroke-width="2" cx="350.867" cy="-482.178" rx="20.2975" ry="20.2975"/>
<text text-anchor="middle" x="350.867" y="-478.478" font-family="Times,serif" font-size="14.00">38</text>
</g>
<!-- 6&#45;&gt;38 -->
<g id="edge66" class="edge"><title>6&#45;&gt;38</title>
<path fill="none" stroke="black" d="M241.092,-473.085C261.593,-474.783 295.402,-477.584 320.092,-479.629"/>
<polygon fill="black" stroke="black" points="320.126,-483.144 330.381,-480.481 320.704,-476.168 320.126,-483.144"/>
<text text-anchor="middle" x="273.092" y="-480.157" font-family="Times,serif" font-size="14.00"> 1 </text>
</g>
<!-- 1 -->
<g id="node14" class="node"><title>1</title>
<ellipse fill="none" stroke="black" stroke-width="2" cx="352.215" cy="-815.632" rx="18" ry="18"/>
<text text-anchor="middle" x="352.215" y="-811.932" font-family="Times,serif" font-size="14.00">1</text>
</g>
<!-- 9 -->
<g id="node15" class="node"><title>9</title>
<ellipse fill="none" stroke="red" stroke-width="2" cx="283.403" cy="-1002.67" rx="18" ry="18"/>
<text text-anchor="middle" x="283.403" y="-998.97" font-family="Times,serif" font-size="14.00">9</text>
</g>
<!-- 1&#45;&gt;9 -->
<g id="edge13" class="edge"><title>1&#45;&gt;9</title>
<path fill="none" stroke="black" d="M345.987,-832.56C333.966,-865.236 307.485,-937.212 293.124,-976.248"/>
<polygon fill="black" stroke="black" points="289.835,-975.052 289.667,-985.645 296.404,-977.469 289.835,-975.052"/>
<text text-anchor="middle" x="312.056" y="-908.204" font-family="Times,serif" font-size="14.00"> 1 </text>
</g>
<!-- 17 -->
<g id="node16" class="node"><title>17</title>
<ellipse fill="none" stroke="blue" stroke-width="2" cx="219.718" cy="-697.991" rx="20.2975" ry="20.2975"/>
<text text-anchor="middle" x="219.718" y="-694.291" font-family="Times,serif" font-size="14.00">17</text>
</g>
<!-- 1&#45;&gt;17 -->
<g id="edge14" class="edge"><title>1&#45;&gt;17</title>
<path fill="none" stroke="black" d="M338.535,-803.485C315.907,-783.395 270.446,-743.032 242.784,-718.471"/>
<polygon fill="black" stroke="black" points="244.953,-715.717 235.152,-711.695 240.306,-720.951 244.953,-715.717"/>
<text text-anchor="middle" x="283.159" y="-764.778" font-family="Times,serif" font-size="14.00"> 2 </text>
</g>
<!-- 25 -->
<g id="node17" class="node"><title>25</title>
<ellipse fill="none" stroke="green" stroke-width="2" cx="384.453" cy="-1013.86" rx="20.2975" ry="20.2975"/>
<text text-anchor="middle" x="384.453" y="-1010.16" font-family="Times,serif" font-size="14.00">25</text>
</g>
<!-- 1&#45;&gt;25 -->
<g id="edge15" class="edge"><title>1&#45;&gt;25</title>
<path fill="none" stroke="black" d="M355.133,-833.572C360.677,-867.661 372.784,-942.108 379.579,-983.888"/>
<polygon fill="black" stroke="black" points="376.125,-984.453 381.185,-993.761 383.034,-983.329 376.125,-984.453"/>
<text text-anchor="middle" x="359.856" y="-912.53" font-family="Times,serif" font-size="14.00"> 3 </text>
</g>
<!-- 33 -->
<g id="node18" class="node"><title>33</title>
<ellipse fill="none" stroke="orange" stroke-width="2" cx="429.853" cy="-597.923" rx="20.2975" ry="20.2975"/>
<text text-anchor="middle" x="429.853" y="-594.223" font-family="Times,serif" font-size="14.00">33</text>
</g>
<!-- 1&#45;&gt;33 -->
<g id="edge16" class="edge"><title>1&#45;&gt;33</title>
<path fill="none" stroke="black" d="M358.307,-798.548C371.567,-761.365 403.168,-672.751 419.574,-626.748"/>
<polygon fill="black" stroke="black" points="422.958,-627.677 423.021,-617.082 416.365,-625.325 422.958,-627.677"/>
<text text-anchor="middle" x="381.44" y="-716.448" font-family="Times,serif" font-size="14.00"> 4 </text>
</g>
<!-- 17&#45;&gt;6 -->
<g id="edge18" class="edge"><title>17&#45;&gt;6</title>
<path fill="none" stroke="blue" d="M220.019,-677.5C220.617,-636.89 221.953,-546.128 222.634,-499.869"/>
<polygon fill="blue" stroke="blue" points="226.137,-499.7 222.785,-489.65 219.138,-499.597 226.137,-499.7"/>
</g>
<!-- 33&#45;&gt;7 -->
<g id="edge17" class="edge"><title>33&#45;&gt;7</title>
<path fill="none" stroke="orange" d="M433.84,-577.923C443.763,-528.151 469.585,-398.622 480.995,-341.391"/>
<polygon fill="orange" stroke="orange" points="484.49,-341.758 483.013,-331.267 477.625,-340.389 484.49,-341.758"/>
</g>
<!-- 18&#45;&gt;6 -->
<g id="edge28" class="edge"><title>18&#45;&gt;6</title>
<path fill="none" stroke="blue" d="M366.643,-392.685C337.792,-408.539 280.926,-439.787 248.076,-457.839"/>
<polygon fill="blue" stroke="blue" points="246.178,-454.888 239.1,-462.771 249.549,-461.023 246.178,-454.888"/>
</g>
<!-- 34&#45;&gt;7 -->
<g id="edge23" class="edge"><title>34&#45;&gt;7</title>
<path fill="none" stroke="orange" d="M605.35,-198.292C581.518,-221.406 534.047,-267.446 506.883,-293.791"/>
<polygon fill="orange" stroke="orange" points="504.216,-291.502 499.475,-300.976 509.09,-296.527 504.216,-291.502"/>
</g>
<!-- 11 -->
<g id="node23" class="node"><title>11</title>
<ellipse fill="none" stroke="red" stroke-width="2" cx="628.647" cy="-299.405" rx="20.2975" ry="20.2975"/>
<text text-anchor="middle" x="628.647" y="-295.705" font-family="Times,serif" font-size="14.00">11</text>
</g>
<!-- 3&#45;&gt;11 -->
<g id="edge29" class="edge"><title>3&#45;&gt;11</title>
<path fill="none" stroke="black" d="M597.739,-422.674C603.633,-399.166 614.172,-357.133 621.286,-328.763"/>
<polygon fill="black" stroke="black" points="624.699,-329.54 623.736,-318.989 617.909,-327.837 624.699,-329.54"/>
<text text-anchor="middle" x="602.012" y="-379.519" font-family="Times,serif" font-size="14.00"> 1 </text>
</g>
<!-- 19 -->
<g id="node24" class="node"><title>19</title>
<ellipse fill="none" stroke="blue" stroke-width="2" cx="585.041" cy="-554.485" rx="20.2975" ry="20.2975"/>
<text text-anchor="middle" x="585.041" y="-550.785" font-family="Times,serif" font-size="14.00">19</text>
</g>
<!-- 3&#45;&gt;19 -->
<g id="edge30" class="edge"><title>3&#45;&gt;19</title>
<path fill="none" stroke="black" d="M592.023,-458.329C590.741,-475.986 588.767,-503.169 587.245,-524.134"/>
<polygon fill="black" stroke="black" points="583.751,-523.925 586.517,-534.152 590.732,-524.432 583.751,-523.925"/>
<text text-anchor="middle" x="582.134" y="-495.032" font-family="Times,serif" font-size="14.00"> 0 </text>
</g>
<!-- 27 -->
<g id="node25" class="node"><title>27</title>
<ellipse fill="none" stroke="green" stroke-width="2" cx="771.748" cy="-569.643" rx="20.2975" ry="20.2975"/>
<text text-anchor="middle" x="771.748" y="-565.943" font-family="Times,serif" font-size="14.00">27</text>
</g>
<!-- 3&#45;&gt;27 -->
<g id="edge31" class="edge"><title>3&#45;&gt;27</title>
<path fill="none" stroke="black" d="M607.938,-450.815C638.448,-472.947 709.252,-524.308 747.003,-551.693"/>
<polygon fill="black" stroke="black" points="745.258,-554.751 755.408,-557.789 749.368,-549.084 745.258,-554.751"/>
<text text-anchor="middle" x="684.971" y="-505.054" font-family="Times,serif" font-size="14.00"> 0 </text>
</g>
<!-- 35 -->
<g id="node26" class="node"><title>35</title>
<ellipse fill="none" stroke="orange" stroke-width="2" cx="693.566" cy="-406.257" rx="20.2975" ry="20.2975"/>
<text text-anchor="middle" x="693.566" y="-402.557" font-family="Times,serif" font-size="14.00">35</text>
</g>
<!-- 3&#45;&gt;35 -->
<g id="edge32" class="edge"><title>3&#45;&gt;35</title>
<path fill="none" stroke="black" d="M610.796,-434.308C625.612,-429.287 647.172,-421.98 664.573,-416.083"/>
<polygon fill="black" stroke="black" points="665.909,-419.326 674.256,-412.801 663.662,-412.696 665.909,-419.326"/>
<text text-anchor="middle" x="630.185" y="-428.995" font-family="Times,serif" font-size="14.00"> 1 </text>
</g>
<!-- 11&#45;&gt;7 -->
<g id="edge34" class="edge"><title>11&#45;&gt;7</title>
<path fill="none" stroke="red" d="M608.59,-301.396C584.142,-303.822 542.669,-307.938 514.949,-310.69"/>
<polygon fill="red" stroke="red" points="514.314,-307.235 504.709,-311.706 515.005,-314.201 514.314,-307.235"/>
</g>
<!-- 11&#45;&gt;2 -->
<g id="edge25" class="edge"><title>11&#45;&gt;2</title>
<path fill="none" stroke="red" d="M612.712,-287.031C590.977,-270.152 551.921,-239.822 527.24,-220.656"/>
<polygon fill="red" stroke="red" points="529.207,-217.752 519.162,-214.382 524.913,-223.28 529.207,-217.752"/>
</g>
<!-- 19&#45;&gt;5 -->
<g id="edge36" class="edge"><title>19&#45;&gt;5</title>
<path fill="none" stroke="blue" d="M574.621,-536.85C557.132,-507.252 521.847,-447.536 502.026,-413.99"/>
<polygon fill="blue" stroke="blue" points="504.973,-412.098 496.873,-405.269 498.947,-415.659 504.973,-412.098"/>
</g>
<!-- 35&#45;&gt;7 -->
<g id="edge33" class="edge"><title>35&#45;&gt;7</title>
<path fill="none" stroke="orange" d="M674.83,-397.863C637.697,-381.226 554.708,-344.044 512.41,-325.093"/>
<polygon fill="orange" stroke="orange" points="513.623,-321.801 503.066,-320.906 510.761,-328.189 513.623,-321.801"/>
</g>
<!-- 15&#45;&gt;5 -->
<g id="edge51" class="edge"><title>15&#45;&gt;5</title>
<path fill="none" stroke="red" d="M434.841,-464.077C445.06,-449.691 459.912,-428.783 471.269,-412.797"/>
<polygon fill="red" stroke="red" points="474.229,-414.673 477.167,-404.494 468.522,-410.62 474.229,-414.673"/>
</g>
<!-- 15&#45;&gt;6 -->
<g id="edge60" class="edge"><title>15&#45;&gt;6</title>
<path fill="none" stroke="red" d="M402.704,-479.851C366.8,-478.2 291.973,-474.76 251.13,-472.882"/>
<polygon fill="red" stroke="red" points="251.197,-469.381 241.047,-472.418 250.876,-476.374 251.197,-469.381"/>
</g>
<!-- 15&#45;&gt;3 -->
<g id="edge35" class="edge"><title>15&#45;&gt;3</title>
<path fill="none" stroke="red" d="M442.85,-476.051C473.236,-468.817 531.331,-454.987 565.772,-446.787"/>
<polygon fill="red" stroke="red" points="566.727,-450.158 575.644,-444.437 565.106,-443.348 566.727,-450.158"/>
</g>
<!-- 12&#45;&gt;6 -->
<g id="edge42" class="edge"><title>12&#45;&gt;6</title>
<path fill="none" stroke="red" d="M51.9351,-406.21C85.9755,-419.216 157.623,-446.592 196.539,-461.461"/>
<polygon fill="red" stroke="red" points="195.546,-464.828 206.137,-465.128 198.045,-458.289 195.546,-464.828"/>
</g>
<!-- 20&#45;&gt;0 -->
<g id="edge44" class="edge"><title>20&#45;&gt;0</title>
<path fill="none" stroke="blue" d="M39.8446,-157.247C77.3898,-166.894 159.242,-187.925 202.145,-198.949"/>
<polygon fill="blue" stroke="blue" points="201.36,-202.361 211.916,-201.459 203.102,-195.581 201.36,-202.361"/>
</g>
<!-- 36&#45;&gt;7 -->
<g id="edge41" class="edge"><title>36&#45;&gt;7</title>
<path fill="none" stroke="orange" d="M302.621,-217.811C338.694,-236.579 420.163,-278.966 461.493,-300.47"/>
<polygon fill="orange" stroke="orange" points="459.894,-303.583 470.381,-305.094 463.125,-297.373 459.894,-303.583"/>
</g>
<!-- 14&#45;&gt;7 -->
<g id="edge61" class="edge"><title>14&#45;&gt;7</title>
<path fill="none" stroke="red" d="M307.297,-349.29C342.957,-342.172 418.013,-327.189 458.78,-319.052"/>
<polygon fill="red" stroke="red" points="459.714,-322.435 468.835,-317.045 458.343,-315.57 459.714,-322.435"/>
</g>
<!-- 14&#45;&gt;4 -->
<g id="edge43" class="edge"><title>14&#45;&gt;4</title>
<path fill="none" stroke="red" d="M271.107,-341.013C243.624,-320.483 188.174,-279.062 157.024,-255.793"/>
<polygon fill="red" stroke="red" points="159.032,-252.924 148.926,-249.744 154.843,-258.532 159.032,-252.924"/>
</g>
<!-- 14&#45;&gt;5 -->
<g id="edge53" class="edge"><title>14&#45;&gt;5</title>
<path fill="none" stroke="red" d="M307.409,-356.874C343.346,-363.419 419.07,-377.209 460.006,-384.663"/>
<polygon fill="red" stroke="red" points="459.391,-388.109 469.856,-386.457 460.645,-381.222 459.391,-388.109"/>
</g>
<!-- 21&#45;&gt;0 -->
<g id="edge54" class="edge"><title>21&#45;&gt;0</title>
<path fill="none" stroke="blue" d="M328.002,-251.785C308.374,-242.652 277.241,-228.165 255.264,-217.939"/>
<polygon fill="blue" stroke="blue" points="256.719,-214.755 246.176,-213.71 253.766,-221.102 256.719,-214.755"/>
</g>
<!-- 37&#45;&gt;7 -->
<g id="edge49" class="edge"><title>37&#45;&gt;7</title>
<path fill="none" stroke="orange" d="M616.157,-345.18C589.992,-338.786 543.82,-327.503 514.234,-320.272"/>
<polygon fill="orange" stroke="orange" points="514.697,-316.783 504.151,-317.809 513.035,-323.582 514.697,-316.783"/>
</g>
<!-- 23&#45;&gt;0 -->
<g id="edge62" class="edge"><title>23&#45;&gt;0</title>
<path fill="none" stroke="blue" d="M379.351,-127.459C349.391,-143.178 289.098,-174.811 254.87,-192.769"/>
<polygon fill="blue" stroke="blue" points="253.184,-189.701 245.954,-197.446 256.436,-195.9 253.184,-189.701"/>
</g>
<!-- 39&#45;&gt;7 -->
<g id="edge59" class="edge"><title>39&#45;&gt;7</title>
<path fill="none" stroke="orange" d="M666.501,-242.092C629.464,-252.399 551.115,-281.357 511.124,-299.309"/>
<polygon fill="orange" stroke="orange" points="509.431,-296.236 501.832,-303.618 512.376,-302.586 509.431,-296.236"/>
</g>
<!-- 22&#45;&gt;0 -->
<g id="edge68" class="edge"><title>22&#45;&gt;0</title>
<path fill="none" stroke="blue" d="M96.1765,-316.063C122.836,-294.079 177.067,-249.357 207.551,-224.218"/>
<polygon fill="blue" stroke="blue" points="209.989,-226.744 215.477,-217.682 205.536,-221.344 209.989,-226.744"/>
</g>
<!-- 38&#45;&gt;7 -->
<g id="edge67" class="edge"><title>38&#45;&gt;7</title>
<path fill="none" stroke="orange" d="M363.632,-466.31C387.959,-436.07 441.005,-370.129 468.784,-335.597"/>
<polygon fill="orange" stroke="orange" points="471.728,-337.521 475.269,-327.536 466.274,-333.133 471.728,-337.521"/>
</g>
</g>
</svg>
