<?xml version="1.0" encoding="UTF-8" standalone="no"?>
<!DOCTYPE svg PUBLIC "-//W3C//DTD SVG 1.1//EN"
 "http://www.w3.org/Graphics/SVG/1.1/DTD/svg11.dtd">
<!-- Generated by graphviz version 2.38.0 (20140413.2041)
 -->
<!-- Title: G Pages: 1 -->
<svg width="750pt" height="275pt"
 viewBox="0.00 0.00 750.00 275.00" xmlns="http://www.w3.org/2000/svg" xmlns:xlink="http://www.w3.org/1999/xlink">
<g id="graph0" class="graph" transform="scale(1 1) rotate(0) translate(44 271)">
<title>G</title>
<polygon fill="white" stroke="none" points="-44,4 -44,-271 706,-271 706,4 -44,4"/>
<!-- 0 -->
<g id="node1" class="node"><title>0</title>
<ellipse fill="none" stroke="black" stroke-width="4" cx="18" cy="-18" rx="18" ry="18"/>
<text text-anchor="middle" x="18" y="-14.3" font-family="Times,serif" font-size="14.00">0</text>
<text text-anchor="middle" x="-20" y="-39.8" font-family="Times,serif" font-size="14.00">4/0/2/0</text>
</g>
<!-- 2 -->
<g id="node3" class="node"><title>2</title>
<ellipse fill="none" stroke="black" stroke-width="2" cx="306" cy="-18" rx="18" ry="18"/>
<text text-anchor="middle" x="306" y="-14.3" font-family="Times,serif" font-size="14.00">2</text>
<text text-anchor="middle" x="268" y="-39.8" font-family="Times,serif" font-size="14.00">3/1/1/0</text>
</g>
<!-- 0&#45;&gt;2 -->
<g id="edge2" class="edge"><title>0&#45;&gt;2</title>
<path fill="none" stroke="red" d="M36.0157,-21.4866C84.7061,-25.583 219.204,-25.8229 277.943,-22.2062"/>
<polygon fill="red" stroke="red" points="278.267,-25.692 287.991,-21.4861 277.766,-18.7099 278.267,-25.692"/>
</g>
<!-- 4 -->
<g id="node5" class="node"><title>4</title>
<ellipse fill="none" stroke="black" stroke-width="2" cx="450" cy="-234" rx="18" ry="18"/>
<text text-anchor="middle" x="450" y="-230.3" font-family="Times,serif" font-size="14.00">4</text>
<text text-anchor="middle" x="412" y="-255.8" font-family="Times,serif" font-size="14.00">0/0/1/1</text>
</g>
<!-- 0&#45;&gt;4 -->
<g id="edge4" class="edge"><title>0&#45;&gt;4</title>
<path fill="none" stroke="green" d="M30.9493,-30.5391C90.6848,-71.9482 338.55,-196.357 422.314,-227.652"/>
<polygon fill="green" stroke="green" points="421.318,-231.012 431.913,-231.069 423.666,-224.418 421.318,-231.012"/>
</g>
<!-- 5 -->
<g id="node6" class="node"><title>5</title>
<ellipse fill="none" stroke="black" stroke-width="2" cx="666" cy="-18" rx="18" ry="18"/>
<text text-anchor="middle" x="666" y="-14.3" font-family="Times,serif" font-size="14.00">5</text>
<text text-anchor="middle" x="628" y="-39.8" font-family="Times,serif" font-size="14.00">1/0/0/2</text>
</g>
<!-- 0&#45;&gt;5 -->
<g id="edge6" class="edge"><title>0&#45;&gt;5</title>
<path fill="none" stroke="red" d="M35.6685,-22.8008C125.184,-34.0266 528.669,-34.3877 638.386,-23.8843"/>
<polygon fill="red" stroke="red" points="638.785,-27.3616 648.347,-22.7989 638.027,-20.4028 638.785,-27.3616"/>
</g>
<!-- 6 -->
<g id="node7" class="node"><title>6</title>
<ellipse fill="none" stroke="black" stroke-width="2" cx="666" cy="-234" rx="18" ry="18"/>
<text text-anchor="middle" x="666" y="-230.3" font-family="Times,serif" font-size="14.00">6</text>
<text text-anchor="middle" x="628" y="-255.8" font-family="Times,serif" font-size="14.00">2/0/0/1</text>
</g>
<!-- 0&#45;&gt;6 -->
<g id="edge8" class="edge"><title>0&#45;&gt;6</title>
<path fill="none" stroke="blue" d="M34.2537,-25.9034C120.867,-60.7516 528.116,-196.691 638.406,-227.856"/>
<polygon fill="blue" stroke="blue" points="637.561,-231.253 648.131,-230.537 639.422,-224.505 637.561,-231.253"/>
</g>
<!-- 7 -->
<g id="node8" class="node"><title>7</title>
<ellipse fill="none" stroke="black" stroke-width="4" cx="666" cy="-162" rx="18" ry="18"/>
<text text-anchor="middle" x="666" y="-158.3" font-family="Times,serif" font-size="14.00">7</text>
<text text-anchor="middle" x="628" y="-183.8" font-family="Times,serif" font-size="14.00">0/0/0/0</text>
</g>
<!-- 0&#45;&gt;7 -->
<g id="edge1" class="edge"><title>0&#45;&gt;7</title>
<path fill="none" stroke="orange" d="M35.1478,-24.2696C123.446,-49.6411 526.892,-139.481 637.748,-158.736"/>
<polygon fill="orange" stroke="orange" points="637.387,-162.224 647.827,-160.419 638.54,-155.319 637.387,-162.224"/>
</g>
<!-- 1 -->
<g id="node2" class="node"><title>1</title>
<ellipse fill="none" stroke="black" stroke-width="2" cx="162" cy="-90" rx="18" ry="18"/>
<text text-anchor="middle" x="162" y="-86.3" font-family="Times,serif" font-size="14.00">1</text>
<text text-anchor="middle" x="124" y="-111.8" font-family="Times,serif" font-size="14.00">1/2/3/4</text>
</g>
<!-- 1&#45;&gt;6 -->
<g id="edge10" class="edge"><title>1&#45;&gt;6</title>
<path fill="none" stroke="blue" d="M179.349,-94.9568C253.933,-116.267 547.66,-200.189 638.848,-226.242"/>
<polygon fill="blue" stroke="blue" points="637.887,-229.608 648.464,-228.99 639.81,-222.877 637.887,-229.608"/>
</g>
<!-- 1&#45;&gt;7 -->
<g id="edge9" class="edge"><title>1&#45;&gt;7</title>
<path fill="none" stroke="orange" d="M179.938,-92.5625C255.252,-103.322 546.243,-144.892 638.07,-158.01"/>
<polygon fill="orange" stroke="orange" points="637.62,-161.481 648.015,-159.431 638.61,-154.552 637.62,-161.481"/>
</g>
<!-- 2&#45;&gt;0 -->
<g id="edge3" class="edge"><title>2&#45;&gt;0</title>
<path fill="none" stroke="red" d="M287.984,-14.5134C239.294,-10.417 104.796,-10.1771 46.0573,-13.7938"/>
<polygon fill="red" stroke="red" points="45.7331,-10.308 36.0089,-14.5139 46.2335,-17.2901 45.7331,-10.308"/>
</g>
<!-- 3 -->
<g id="node4" class="node"><title>3</title>
<ellipse fill="none" stroke="black" stroke-width="2" cx="306" cy="-162" rx="18" ry="18"/>
<text text-anchor="middle" x="306" y="-158.3" font-family="Times,serif" font-size="14.00">3</text>
<text text-anchor="middle" x="268" y="-183.8" font-family="Times,serif" font-size="14.00">1/0/0/1</text>
</g>
<!-- 2&#45;&gt;3 -->
<g id="edge12" class="edge"><title>2&#45;&gt;3</title>
<path fill="none" stroke="red" d="M301.386,-35.6572C298.865,-60.1639 298.576,-104.752 300.517,-133.87"/>
<polygon fill="red" stroke="red" points="297.059,-134.521 301.371,-144.198 304.035,-133.944 297.059,-134.521"/>
</g>
<!-- 2&#45;&gt;5 -->
<g id="edge14" class="edge"><title>2&#45;&gt;5</title>
<path fill="none" stroke="red" d="M323.852,-21.1483C382.031,-25.704 566.488,-25.9379 637.631,-21.8499"/>
<polygon fill="red" stroke="red" points="638.295,-25.3136 648.04,-21.1567 637.829,-18.3291 638.295,-25.3136"/>
</g>
<!-- 2&#45;&gt;6 -->
<g id="edge16" class="edge"><title>2&#45;&gt;6</title>
<path fill="none" stroke="blue" d="M321.469,-27.2812C377.768,-61.0607 572.063,-177.638 641.275,-219.165"/>
<polygon fill="blue" stroke="blue" points="639.808,-222.366 650.183,-224.51 643.409,-216.364 639.808,-222.366"/>
</g>
<!-- 2&#45;&gt;7 -->
<g id="edge11" class="edge"><title>2&#45;&gt;7</title>
<path fill="none" stroke="orange" d="M322.881,-24.7523C380.516,-47.8063 569.807,-123.523 639.735,-151.494"/>
<polygon fill="orange" stroke="orange" points="638.571,-154.798 649.156,-155.262 641.171,-148.299 638.571,-154.798"/>
</g>
<!-- 3&#45;&gt;2 -->
<g id="edge13" class="edge"><title>3&#45;&gt;2</title>
<path fill="none" stroke="red" d="M310.614,-144.343C313.135,-119.836 313.424,-75.2481 311.483,-46.1299"/>
<polygon fill="red" stroke="red" points="314.941,-45.4794 310.629,-35.8017 307.965,-46.056 314.941,-45.4794"/>
</g>
<!-- 3&#45;&gt;5 -->
<g id="edge20" class="edge"><title>3&#45;&gt;5</title>
<path fill="none" stroke="blue" d="M322.881,-155.248C380.516,-132.194 569.807,-56.477 639.735,-28.5061"/>
<polygon fill="blue" stroke="blue" points="641.171,-31.7013 649.156,-24.7377 638.571,-25.202 641.171,-31.7013"/>
</g>
<!-- 3&#45;&gt;7 -->
<g id="edge17" class="edge"><title>3&#45;&gt;7</title>
<path fill="none" stroke="orange" d="M323.364,-168.219C381.224,-177.443 567.797,-177.903 638.496,-169.599"/>
<polygon fill="orange" stroke="orange" points="639.376,-173.012 648.811,-168.191 638.429,-166.076 639.376,-173.012"/>
</g>
<!-- 3&#45;&gt;7 -->
<g id="edge18" class="edge"><title>3&#45;&gt;7</title>
<path fill="none" stroke="red" d="M323.364,-155.781C381.224,-146.557 567.797,-146.097 638.496,-154.401"/>
<polygon fill="red" stroke="red" points="638.429,-157.924 648.811,-155.809 639.376,-150.988 638.429,-157.924"/>
</g>
<!-- 4&#45;&gt;0 -->
<g id="edge5" class="edge"><title>4&#45;&gt;0</title>
<path fill="none" stroke="green" d="M437.051,-221.461C377.315,-180.052 129.45,-55.6426 45.6864,-24.3485"/>
<polygon fill="green" stroke="green" points="46.6819,-20.9878 36.0872,-20.9315 44.3343,-27.5824 46.6819,-20.9878"/>
</g>
<!-- 4&#45;&gt;0 -->
<g id="edge24" class="edge"><title>4&#45;&gt;0</title>
<path fill="none" stroke="blue" d="M433.854,-225.927C368.633,-193.317 124.289,-71.1447 43.853,-30.9265"/>
<polygon fill="blue" stroke="blue" points="44.9681,-27.571 34.4586,-26.2293 41.8376,-33.832 44.9681,-27.571"/>
</g>
<!-- 4&#45;&gt;6 -->
<g id="edge22" class="edge"><title>4&#45;&gt;6</title>
<path fill="none" stroke="red" d="M467.676,-237.912C505.188,-241.409 593.01,-241.674 638.142,-238.706"/>
<polygon fill="red" stroke="red" points="638.686,-242.175 648.383,-237.906 638.14,-235.196 638.686,-242.175"/>
</g>
<!-- 4&#45;&gt;7 -->
<g id="edge21" class="edge"><title>4&#45;&gt;7</title>
<path fill="none" stroke="orange" d="M467.311,-228.23C504.925,-215.692 594.335,-185.888 639.263,-170.912"/>
<polygon fill="orange" stroke="orange" points="640.526,-174.181 648.906,-167.698 638.313,-167.54 640.526,-174.181"/>
</g>
<!-- 5&#45;&gt;0 -->
<g id="edge7" class="edge"><title>5&#45;&gt;0</title>
<path fill="none" stroke="red" d="M648.331,-13.1992C558.816,-1.97343 155.331,-1.61228 45.6136,-12.1157"/>
<polygon fill="red" stroke="red" points="45.2147,-8.63839 35.6527,-13.2011 45.973,-15.5972 45.2147,-8.63839"/>
</g>
<!-- 5&#45;&gt;0 -->
<g id="edge30" class="edge"><title>5&#45;&gt;0</title>
<path fill="none" stroke="blue" d="M647.992,-18C557.984,-18 156.818,-18 46.2811,-18"/>
<polygon fill="blue" stroke="blue" points="46.2277,-14.5001 36.2276,-18 46.2276,-21.5001 46.2277,-14.5001"/>
</g>
<!-- 5&#45;&gt;2 -->
<g id="edge15" class="edge"><title>5&#45;&gt;2</title>
<path fill="none" stroke="red" d="M648.148,-14.8517C589.969,-10.296 405.512,-10.0621 334.369,-14.1501"/>
<polygon fill="red" stroke="red" points="333.705,-10.6864 323.96,-14.8433 334.171,-17.6709 333.705,-10.6864"/>
</g>
<!-- 5&#45;&gt;6 -->
<g id="edge28" class="edge"><title>5&#45;&gt;6</title>
<path fill="none" stroke="red" d="M662.088,-35.6762C658.591,-73.188 658.326,-161.01 661.294,-206.142"/>
<polygon fill="red" stroke="red" points="657.825,-206.686 662.094,-216.383 664.804,-206.14 657.825,-206.686"/>
</g>
<!-- 5&#45;&gt;7 -->
<g id="edge25" class="edge"><title>5&#45;&gt;7</title>
<path fill="none" stroke="orange" d="M657.135,-33.9607C651.636,-58.613 651.03,-106.203 655.318,-135.909"/>
<polygon fill="orange" stroke="orange" points="651.911,-136.741 657.119,-145.968 658.802,-135.507 651.911,-136.741"/>
</g>
<!-- 5&#45;&gt;7 -->
<g id="edge26" class="edge"><title>5&#45;&gt;7</title>
<path fill="none" stroke="red" d="M674.865,-33.9607C680.364,-58.613 680.97,-106.203 676.682,-135.909"/>
<polygon fill="red" stroke="red" points="673.198,-135.507 674.881,-145.968 680.089,-136.741 673.198,-135.507"/>
</g>
<!-- 6&#45;&gt;0 -->
<g id="edge36" class="edge"><title>6&#45;&gt;0</title>
<path fill="none" stroke="blue" d="M649.746,-226.097C563.133,-191.248 155.884,-55.3093 45.5942,-24.1445"/>
<polygon fill="blue" stroke="blue" points="46.4394,-20.747 35.8688,-21.4625 44.5785,-27.4951 46.4394,-20.747"/>
</g>
<!-- 6&#45;&gt;4 -->
<g id="edge23" class="edge"><title>6&#45;&gt;4</title>
<path fill="none" stroke="red" d="M648.324,-230.088C610.812,-226.591 522.99,-226.326 477.858,-229.294"/>
<polygon fill="red" stroke="red" points="477.314,-225.825 467.617,-230.094 477.86,-232.804 477.314,-225.825"/>
</g>
<!-- 6&#45;&gt;5 -->
<g id="edge29" class="edge"><title>6&#45;&gt;5</title>
<path fill="none" stroke="red" d="M669.912,-216.324C673.409,-178.812 673.674,-90.9897 670.706,-45.8583"/>
<polygon fill="red" stroke="red" points="674.175,-45.3145 669.906,-35.6175 667.196,-45.8598 674.175,-45.3145"/>
</g>
<!-- 6&#45;&gt;7 -->
<g id="edge33" class="edge"><title>6&#45;&gt;7</title>
<path fill="none" stroke="red" d="M677.097,-219.43C679.526,-209.963 680.114,-197.389 678.859,-186.42"/>
<polygon fill="red" stroke="red" points="682.299,-185.775 677.092,-176.549 675.409,-187.009 682.299,-185.775"/>
</g>
<!-- 6&#45;&gt;7 -->
<g id="edge35" class="edge"><title>6&#45;&gt;7</title>
<path fill="none" stroke="orange" d="M654.903,-219.43C652.474,-209.963 651.886,-197.389 653.141,-186.42"/>
<polygon fill="orange" stroke="orange" points="656.591,-187.009 654.908,-176.549 649.701,-185.775 656.591,-187.009"/>
</g>
<!-- 7&#45;&gt;0 -->
<g id="edge34" class="edge"><title>7&#45;&gt;0</title>
<path fill="none" stroke="blue" d="M648.852,-155.73C560.554,-130.359 157.108,-40.5192 46.2519,-21.2643"/>
<polygon fill="blue" stroke="blue" points="46.6133,-17.7762 36.1732,-19.5805 45.4598,-24.6805 46.6133,-17.7762"/>
</g>
<!-- 7&#45;&gt;3 -->
<g id="edge19" class="edge"><title>7&#45;&gt;3</title>
<path fill="none" stroke="red" d="M647.653,-162C589.034,-162 405.955,-162 334.743,-162"/>
<polygon fill="red" stroke="red" points="334.31,-158.5 324.31,-162 334.31,-165.5 334.31,-158.5"/>
</g>
<!-- 7&#45;&gt;5 -->
<g id="edge27" class="edge"><title>7&#45;&gt;5</title>
<path fill="none" stroke="red" d="M666,-143.762C666,-119.201 666,-75.2474 666,-46.3541"/>
<polygon fill="red" stroke="red" points="669.5,-46.0896 666,-36.0896 662.5,-46.0897 669.5,-46.0896"/>
</g>
<!-- 7&#45;&gt;6 -->
<g id="edge32" class="edge"><title>7&#45;&gt;6</title>
<path fill="none" stroke="red" d="M666,-180.169C666,-187.869 666,-197.026 666,-205.583"/>
<polygon fill="red" stroke="red" points="662.5,-205.587 666,-215.587 669.5,-205.587 662.5,-205.587"/>
</g>
<!-- 7&#45;&gt;7 -->
<g id="edge31" class="edge"><title>7&#45;&gt;7</title>
<path fill="none" stroke="orange" d="M683.037,-168.379C692.858,-169.681 702,-167.555 702,-162 702,-158.528 698.429,-156.396 693.353,-155.602"/>
<polygon fill="orange" stroke="orange" points="693.031,-152.103 683.037,-155.621 693.044,-159.103 693.031,-152.103"/>
</g>
</g>
</svg>
