<?xml version="1.0" encoding="UTF-8" standalone="no"?>
<!DOCTYPE svg PUBLIC "-//W3C//DTD SVG 1.1//EN"
 "http://www.w3.org/Graphics/SVG/1.1/DTD/svg11.dtd">
<!-- Generated by graphviz version 2.38.0 (20140413.2041)
 -->
<!-- Title: G Pages: 1 -->
<svg width="692pt" height="260pt"
 viewBox="0.00 0.00 692.00 260.00" xmlns="http://www.w3.org/2000/svg" xmlns:xlink="http://www.w3.org/1999/xlink">
<g id="graph0" class="graph" transform="scale(1 1) rotate(0) translate(4 256)">
<title>G</title>
<polygon fill="white" stroke="none" points="-4,4 -4,-256 688,-256 688,4 -4,4"/>
<!-- 0 -->
<g id="node1" class="node"><title>0</title>
<ellipse fill="none" stroke="black" stroke-width="4" cx="18" cy="-18" rx="18" ry="18"/>
<text text-anchor="middle" x="18" y="-14.3" font-family="Times,serif" font-size="14.00">0</text>
</g>
<!-- 6 -->
<g id="node7" class="node"><title>6</title>
<ellipse fill="none" stroke="black" stroke-width="2" cx="666" cy="-234" rx="18" ry="18"/>
<text text-anchor="middle" x="666" y="-230.3" font-family="Times,serif" font-size="14.00">6</text>
</g>
<!-- 0&#45;&gt;6 -->
<g id="edge1" class="edge"><title>0&#45;&gt;6</title>
<path fill="none" stroke="blue" d="M34.2537,-25.9034C120.867,-60.7516 528.116,-196.691 638.406,-227.856"/>
<polygon fill="blue" stroke="blue" points="637.561,-231.253 648.131,-230.537 639.422,-224.505 637.561,-231.253"/>
</g>
<!-- 1 -->
<g id="node2" class="node"><title>1</title>
<ellipse fill="none" stroke="black" stroke-width="2" cx="162" cy="-90" rx="18" ry="18"/>
<text text-anchor="middle" x="162" y="-86.3" font-family="Times,serif" font-size="14.00">1</text>
</g>
<!-- 1&#45;&gt;6 -->
<g id="edge2" class="edge"><title>1&#45;&gt;6</title>
<path fill="none" stroke="blue" d="M179.349,-94.9568C253.933,-116.267 547.66,-200.189 638.848,-226.242"/>
<polygon fill="blue" stroke="blue" points="637.887,-229.608 648.464,-228.99 639.81,-222.877 637.887,-229.608"/>
</g>
<!-- 2 -->
<g id="node3" class="node"><title>2</title>
<ellipse fill="none" stroke="black" stroke-width="2" cx="306" cy="-18" rx="18" ry="18"/>
<text text-anchor="middle" x="306" y="-14.3" font-family="Times,serif" font-size="14.00">2</text>
</g>
<!-- 2&#45;&gt;6 -->
<g id="edge3" class="edge"><title>2&#45;&gt;6</title>
<path fill="none" stroke="blue" d="M321.469,-27.2812C377.768,-61.0607 572.063,-177.638 641.275,-219.165"/>
<polygon fill="blue" stroke="blue" points="639.808,-222.366 650.183,-224.51 643.409,-216.364 639.808,-222.366"/>
</g>
<!-- 3 -->
<g id="node4" class="node"><title>3</title>
<ellipse fill="none" stroke="black" stroke-width="2" cx="306" cy="-162" rx="18" ry="18"/>
<text text-anchor="middle" x="306" y="-158.3" font-family="Times,serif" font-size="14.00">3</text>
</g>
<!-- 5 -->
<g id="node6" class="node"><title>5</title>
<ellipse fill="none" stroke="black" stroke-width="2" cx="666" cy="-18" rx="18" ry="18"/>
<text text-anchor="middle" x="666" y="-14.3" font-family="Times,serif" font-size="14.00">5</text>
</g>
<!-- 3&#45;&gt;5 -->
<g id="edge4" class="edge"><title>3&#45;&gt;5</title>
<path fill="none" stroke="blue" d="M322.881,-155.248C380.516,-132.194 569.807,-56.477 639.735,-28.5061"/>
<polygon fill="blue" stroke="blue" points="641.171,-31.7013 649.156,-24.7377 638.571,-25.202 641.171,-31.7013"/>
</g>
<!-- 4 -->
<g id="node5" class="node"><title>4</title>
<ellipse fill="none" stroke="black" stroke-width="2" cx="450" cy="-234" rx="18" ry="18"/>
<text text-anchor="middle" x="450" y="-230.3" font-family="Times,serif" font-size="14.00">4</text>
</g>
<!-- 4&#45;&gt;0 -->
<g id="edge5" class="edge"><title>4&#45;&gt;0</title>
<path fill="none" stroke="blue" d="M433.854,-225.927C368.633,-193.317 124.289,-71.1447 43.853,-30.9265"/>
<polygon fill="blue" stroke="blue" points="44.9681,-27.571 34.4586,-26.2293 41.8376,-33.832 44.9681,-27.571"/>
</g>
<!-- 5&#45;&gt;0 -->
<g id="edge6" class="edge"><title>5&#45;&gt;0</title>
<path fill="none" stroke="blue" d="M647.992,-18C557.984,-18 156.818,-18 46.2811,-18"/>
<polygon fill="blue" stroke="blue" points="46.2277,-14.5001 36.2276,-18 46.2276,-21.5001 46.2277,-14.5001"/>
</g>
<!-- 6&#45;&gt;0 -->
<g id="edge8" class="edge"><title>6&#45;&gt;0</title>
<path fill="none" stroke="blue" d="M649.746,-226.097C563.133,-191.248 155.884,-55.3093 45.5942,-24.1445"/>
<polygon fill="blue" stroke="blue" points="46.4394,-20.747 35.8688,-21.4625 44.5785,-27.4951 46.4394,-20.747"/>
</g>
<!-- 7 -->
<g id="node8" class="node"><title>7</title>
<ellipse fill="none" stroke="black" stroke-width="4" cx="666" cy="-162" rx="18" ry="18"/>
<text text-anchor="middle" x="666" y="-158.3" font-family="Times,serif" font-size="14.00">7</text>
</g>
<!-- 7&#45;&gt;0 -->
<g id="edge7" class="edge"><title>7&#45;&gt;0</title>
<path fill="none" stroke="blue" d="M648.331,-158.074C558.816,-138.181 155.331,-48.518 45.6136,-24.1364"/>
<polygon fill="blue" stroke="blue" points="46.1738,-20.6755 35.6527,-21.9228 44.6553,-27.5089 46.1738,-20.6755"/>
</g>
</g>
</svg>
