<?xml version="1.0" encoding="UTF-8" standalone="no"?>
<!DOCTYPE svg PUBLIC "-//W3C//DTD SVG 1.1//EN"
 "http://www.w3.org/Graphics/SVG/1.1/DTD/svg11.dtd">
<!-- Generated by graphviz version 2.38.0 (20140413.2041)
 -->
<!-- Title: G Pages: 1 -->
<svg width="710pt" height="260pt"
 viewBox="0.00 0.00 710.00 260.00" xmlns="http://www.w3.org/2000/svg" xmlns:xlink="http://www.w3.org/1999/xlink">
<g id="graph0" class="graph" transform="scale(1 1) rotate(0) translate(4 256)">
<title>G</title>
<polygon fill="white" stroke="none" points="-4,4 -4,-256 706,-256 706,4 -4,4"/>
<!-- 0 -->
<g id="node1" class="node"><title>0</title>
<ellipse fill="none" stroke="black" stroke-width="4" cx="18" cy="-18" rx="18" ry="18"/>
<text text-anchor="middle" x="18" y="-14.3" font-family="Times,serif" font-size="14.00">0</text>
</g>
<!-- 7 -->
<g id="node8" class="node"><title>7</title>
<ellipse fill="none" stroke="black" stroke-width="4" cx="666" cy="-162" rx="18" ry="18"/>
<text text-anchor="middle" x="666" y="-158.3" font-family="Times,serif" font-size="14.00">7</text>
</g>
<!-- 0&#45;&gt;7 -->
<g id="edge1" class="edge"><title>0&#45;&gt;7</title>
<path fill="none" stroke="orange" d="M35.6685,-21.9263C125.184,-41.8187 528.669,-131.482 638.386,-155.864"/>
<polygon fill="orange" stroke="orange" points="637.826,-159.324 648.347,-158.077 639.345,-152.491 637.826,-159.324"/>
</g>
<!-- 1 -->
<g id="node2" class="node"><title>1</title>
<ellipse fill="none" stroke="black" stroke-width="2" cx="162" cy="-90" rx="18" ry="18"/>
<text text-anchor="middle" x="162" y="-86.3" font-family="Times,serif" font-size="14.00">1</text>
</g>
<!-- 1&#45;&gt;7 -->
<g id="edge2" class="edge"><title>1&#45;&gt;7</title>
<path fill="none" stroke="orange" d="M179.938,-92.5625C255.252,-103.322 546.243,-144.892 638.07,-158.01"/>
<polygon fill="orange" stroke="orange" points="637.62,-161.481 648.015,-159.431 638.61,-154.552 637.62,-161.481"/>
</g>
<!-- 2 -->
<g id="node3" class="node"><title>2</title>
<ellipse fill="none" stroke="black" stroke-width="2" cx="306" cy="-18" rx="18" ry="18"/>
<text text-anchor="middle" x="306" y="-14.3" font-family="Times,serif" font-size="14.00">2</text>
</g>
<!-- 2&#45;&gt;7 -->
<g id="edge3" class="edge"><title>2&#45;&gt;7</title>
<path fill="none" stroke="orange" d="M322.881,-24.7523C380.516,-47.8063 569.807,-123.523 639.735,-151.494"/>
<polygon fill="orange" stroke="orange" points="638.571,-154.798 649.156,-155.262 641.171,-148.299 638.571,-154.798"/>
</g>
<!-- 3 -->
<g id="node4" class="node"><title>3</title>
<ellipse fill="none" stroke="black" stroke-width="2" cx="306" cy="-162" rx="18" ry="18"/>
<text text-anchor="middle" x="306" y="-158.3" font-family="Times,serif" font-size="14.00">3</text>
</g>
<!-- 3&#45;&gt;7 -->
<g id="edge4" class="edge"><title>3&#45;&gt;7</title>
<path fill="none" stroke="orange" d="M324.347,-162C382.966,-162 566.045,-162 637.257,-162"/>
<polygon fill="orange" stroke="orange" points="637.69,-165.5 647.69,-162 637.69,-158.5 637.69,-165.5"/>
</g>
<!-- 4 -->
<g id="node5" class="node"><title>4</title>
<ellipse fill="none" stroke="black" stroke-width="2" cx="450" cy="-234" rx="18" ry="18"/>
<text text-anchor="middle" x="450" y="-230.3" font-family="Times,serif" font-size="14.00">4</text>
</g>
<!-- 4&#45;&gt;7 -->
<g id="edge5" class="edge"><title>4&#45;&gt;7</title>
<path fill="none" stroke="orange" d="M467.311,-228.23C504.925,-215.692 594.335,-185.888 639.263,-170.912"/>
<polygon fill="orange" stroke="orange" points="640.526,-174.181 648.906,-167.698 638.313,-167.54 640.526,-174.181"/>
</g>
<!-- 5 -->
<g id="node6" class="node"><title>5</title>
<ellipse fill="none" stroke="black" stroke-width="2" cx="666" cy="-18" rx="18" ry="18"/>
<text text-anchor="middle" x="666" y="-14.3" font-family="Times,serif" font-size="14.00">5</text>
</g>
<!-- 5&#45;&gt;7 -->
<g id="edge6" class="edge"><title>5&#45;&gt;7</title>
<path fill="none" stroke="orange" d="M666,-36.2377C666,-60.799 666,-104.753 666,-133.646"/>
<polygon fill="orange" stroke="orange" points="662.5,-133.91 666,-143.91 669.5,-133.91 662.5,-133.91"/>
</g>
<!-- 6 -->
<g id="node7" class="node"><title>6</title>
<ellipse fill="none" stroke="black" stroke-width="2" cx="666" cy="-234" rx="18" ry="18"/>
<text text-anchor="middle" x="666" y="-230.3" font-family="Times,serif" font-size="14.00">6</text>
</g>
<!-- 6&#45;&gt;7 -->
<g id="edge8" class="edge"><title>6&#45;&gt;7</title>
<path fill="none" stroke="orange" d="M666,-215.831C666,-208.131 666,-198.974 666,-190.417"/>
<polygon fill="orange" stroke="orange" points="669.5,-190.413 666,-180.413 662.5,-190.413 669.5,-190.413"/>
</g>
<!-- 7&#45;&gt;7 -->
<g id="edge7" class="edge"><title>7&#45;&gt;7</title>
<path fill="none" stroke="orange" d="M683.037,-168.379C692.858,-169.681 702,-167.555 702,-162 702,-158.528 698.429,-156.396 693.353,-155.602"/>
<polygon fill="orange" stroke="orange" points="693.031,-152.103 683.037,-155.621 693.044,-159.103 693.031,-152.103"/>
</g>
</g>
</svg>
