<?xml version="1.0" encoding="UTF-8" standalone="no"?>
<!DOCTYPE svg PUBLIC "-//W3C//DTD SVG 1.1//EN"
 "http://www.w3.org/Graphics/SVG/1.1/DTD/svg11.dtd">
<!-- Generated by graphviz version 2.38.0 (20140413.2041)
 -->
<!-- Title: G Pages: 1 -->
<svg width="839pt" height="399pt"
 viewBox="0.00 0.00 839.00 399.00" xmlns="http://www.w3.org/2000/svg" xmlns:xlink="http://www.w3.org/1999/xlink">
<g id="graph0" class="graph" transform="scale(1 1) rotate(0) translate(4 395)">
<title>G</title>
<polygon fill="white" stroke="none" points="-4,4 -4,-395 835,-395 835,4 -4,4"/>
<!-- 0 -->
<g id="node1" class="node"><title>0</title>
<ellipse fill="none" stroke="black" stroke-width="4" cx="90" cy="-85" rx="18" ry="18"/>
<text text-anchor="middle" x="90" y="-81.3" font-family="Times,serif" font-size="14.00">0</text>
</g>
<!-- 8 -->
<g id="node9" class="node"><title>8</title>
<ellipse fill="none" stroke="red" stroke-width="2" cx="17.9876" cy="-103.897" rx="18" ry="18"/>
<text text-anchor="middle" x="17.9876" y="-100.197" font-family="Times,serif" font-size="14.00">8</text>
</g>
<!-- 0&#45;&gt;8 -->
<g id="edge1" class="edge"><title>0&#45;&gt;8</title>
<path fill="none" stroke="black" d="M72.5678,-89.5744C64.402,-91.7172 54.4812,-94.3205 45.3488,-96.717"/>
<polygon fill="black" stroke="black" points="44.293,-93.3755 35.5088,-99.2991 46.0697,-100.146 44.293,-93.3755"/>
<text text-anchor="middle" x="51.4583" y="-96.9457" font-family="Times,serif" font-size="14.00"> 4 </text>
</g>
<!-- 16 -->
<g id="node10" class="node"><title>16</title>
<ellipse fill="none" stroke="blue" stroke-width="2" cx="135.291" cy="-38.4485" rx="20.2975" ry="20.2975"/>
<text text-anchor="middle" x="135.291" y="-34.7485" font-family="Times,serif" font-size="14.00">16</text>
</g>
<!-- 0&#45;&gt;16 -->
<g id="edge2" class="edge"><title>0&#45;&gt;16</title>
<path fill="none" stroke="black" d="M102.857,-71.7847C106.3,-68.2466 110.116,-64.3244 113.885,-60.4495"/>
<polygon fill="black" stroke="black" points="116.503,-62.7778 120.968,-53.1697 111.486,-57.8965 116.503,-62.7778"/>
<text text-anchor="middle" x="100.871" y="-54.9171" font-family="Times,serif" font-size="14.00"> 0 </text>
</g>
<!-- 24 -->
<g id="node11" class="node"><title>24</title>
<ellipse fill="none" stroke="green" stroke-width="2" cx="55.209" cy="-20.0519" rx="20.2975" ry="20.2975"/>
<text text-anchor="middle" x="55.209" y="-16.3519" font-family="Times,serif" font-size="14.00">24</text>
</g>
<!-- 0&#45;&gt;24 -->
<g id="edge3" class="edge"><title>0&#45;&gt;24</title>
<path fill="none" stroke="black" d="M81.4,-68.9454C77.8912,-62.3951 73.7344,-54.6353 69.7781,-47.2496"/>
<polygon fill="black" stroke="black" points="72.745,-45.376 64.9378,-38.2137 66.5746,-48.6814 72.745,-45.376"/>
<text text-anchor="middle" x="68.089" y="-46.8975" font-family="Times,serif" font-size="14.00"> 2 </text>
</g>
<!-- 32 -->
<g id="node12" class="node"><title>32</title>
<ellipse fill="none" stroke="orange" stroke-width="2" cx="92.88" cy="-136.265" rx="20.2975" ry="20.2975"/>
<text text-anchor="middle" x="92.88" y="-132.565" font-family="Times,serif" font-size="14.00">32</text>
</g>
<!-- 0&#45;&gt;32 -->
<g id="edge4" class="edge"><title>0&#45;&gt;32</title>
<path fill="none" stroke="black" d="M91.0235,-103.218C91.0744,-104.125 91.1261,-105.045 91.1783,-105.973"/>
<polygon fill="black" stroke="black" points="87.6868,-106.225 91.7423,-116.013 94.6757,-105.832 87.6868,-106.225"/>
<text text-anchor="middle" x="83.6009" y="-108.396" font-family="Times,serif" font-size="14.00"> 0 </text>
</g>
<!-- 1 -->
<g id="node2" class="node"><title>1</title>
<ellipse fill="none" stroke="black" stroke-width="2" cx="234" cy="-157" rx="18" ry="18"/>
<text text-anchor="middle" x="234" y="-153.3" font-family="Times,serif" font-size="14.00">1</text>
</g>
<!-- 9 -->
<g id="node13" class="node"><title>9</title>
<ellipse fill="none" stroke="red" stroke-width="2" cx="267.659" cy="-215.494" rx="18" ry="18"/>
<text text-anchor="middle" x="267.659" y="-211.794" font-family="Times,serif" font-size="14.00">9</text>
</g>
<!-- 1&#45;&gt;9 -->
<g id="edge5" class="edge"><title>1&#45;&gt;9</title>
<path fill="none" stroke="black" d="M243.02,-172.675C246.265,-178.314 250.007,-184.818 253.579,-191.026"/>
<polygon fill="black" stroke="black" points="250.593,-192.854 258.614,-199.776 256.66,-189.363 250.593,-192.854"/>
<text text-anchor="middle" x="240.8" y="-185.651" font-family="Times,serif" font-size="14.00"> 1 </text>
</g>
<!-- 17 -->
<g id="node14" class="node"><title>17</title>
<ellipse fill="none" stroke="blue" stroke-width="2" cx="173.622" cy="-206.784" rx="20.2975" ry="20.2975"/>
<text text-anchor="middle" x="173.622" y="-203.084" font-family="Times,serif" font-size="14.00">17</text>
</g>
<!-- 1&#45;&gt;17 -->
<g id="edge6" class="edge"><title>1&#45;&gt;17</title>
<path fill="none" stroke="black" d="M219.996,-168.547C213.242,-174.115 204.954,-180.949 197.262,-187.292"/>
<polygon fill="black" stroke="black" points="194.738,-184.836 189.249,-193.898 199.191,-190.237 194.738,-184.836"/>
<text text-anchor="middle" x="201.129" y="-181.719" font-family="Times,serif" font-size="14.00"> 2 </text>
</g>
<!-- 25 -->
<g id="node15" class="node"><title>25</title>
<ellipse fill="none" stroke="green" stroke-width="2" cx="180.269" cy="-103.189" rx="20.2975" ry="20.2975"/>
<text text-anchor="middle" x="180.269" y="-99.4887" font-family="Times,serif" font-size="14.00">25</text>
</g>
<!-- 1&#45;&gt;25 -->
<g id="edge7" class="edge"><title>1&#45;&gt;25</title>
<path fill="none" stroke="black" d="M221.266,-144.247C215.556,-138.529 208.655,-131.618 202.157,-125.11"/>
<polygon fill="black" stroke="black" points="204.352,-122.354 194.809,-117.751 199.398,-127.3 204.352,-122.354"/>
<text text-anchor="middle" x="204.212" y="-138.479" font-family="Times,serif" font-size="14.00"> 3 </text>
</g>
<!-- 33 -->
<g id="node16" class="node"><title>33</title>
<ellipse fill="none" stroke="orange" stroke-width="2" cx="266.128" cy="-96.7279" rx="20.2975" ry="20.2975"/>
<text text-anchor="middle" x="266.128" y="-93.0279" font-family="Times,serif" font-size="14.00">33</text>
</g>
<!-- 1&#45;&gt;33 -->
<g id="edge8" class="edge"><title>1&#45;&gt;33</title>
<path fill="none" stroke="black" d="M242.61,-140.848C245.44,-135.539 248.666,-129.486 251.803,-123.601"/>
<polygon fill="black" stroke="black" points="254.974,-125.094 256.589,-114.623 248.797,-121.801 254.974,-125.094"/>
<text text-anchor="middle" x="239.706" y="-121.025" font-family="Times,serif" font-size="14.00"> 4 </text>
</g>
<!-- 2 -->
<g id="node3" class="node"><title>2</title>
<ellipse fill="none" stroke="black" stroke-width="2" cx="378" cy="-85" rx="18" ry="18"/>
<text text-anchor="middle" x="378" y="-81.3" font-family="Times,serif" font-size="14.00">2</text>
</g>
<!-- 10 -->
<g id="node17" class="node"><title>10</title>
<ellipse fill="none" stroke="red" stroke-width="2" cx="331.202" cy="-21.0853" rx="20.2975" ry="20.2975"/>
<text text-anchor="middle" x="331.202" y="-17.3853" font-family="Times,serif" font-size="14.00">10</text>
</g>
<!-- 2&#45;&gt;10 -->
<g id="edge9" class="edge"><title>2&#45;&gt;10</title>
<path fill="none" stroke="black" d="M367.146,-70.176C361.856,-62.9504 355.35,-54.0657 349.335,-45.85"/>
<polygon fill="black" stroke="black" points="352.046,-43.6288 343.315,-37.628 346.398,-47.7642 352.046,-43.6288"/>
<text text-anchor="middle" x="350.74" y="-61.813" font-family="Times,serif" font-size="14.00"> 3 </text>
</g>
<!-- 18 -->
<g id="node18" class="node"><title>18</title>
<ellipse fill="none" stroke="blue" stroke-width="2" cx="427.949" cy="-128.3" rx="20.2975" ry="20.2975"/>
<text text-anchor="middle" x="427.949" y="-124.6" font-family="Times,serif" font-size="14.00">18</text>
</g>
<!-- 2&#45;&gt;18 -->
<g id="edge10" class="edge"><title>2&#45;&gt;18</title>
<path fill="none" stroke="black" d="M391.649,-96.832C395.693,-100.338 400.239,-104.279 404.711,-108.155"/>
<polygon fill="black" stroke="black" points="402.707,-111.05 412.555,-114.955 407.292,-105.761 402.707,-111.05"/>
<text text-anchor="middle" x="405.68" y="-91.2937" font-family="Times,serif" font-size="14.00"> 1 </text>
</g>
<!-- 26 -->
<g id="node19" class="node"><title>26</title>
<ellipse fill="none" stroke="green" stroke-width="2" cx="429.225" cy="-26.6592" rx="20.2975" ry="20.2975"/>
<text text-anchor="middle" x="429.225" y="-22.9592" font-family="Times,serif" font-size="14.00">26</text>
</g>
<!-- 2&#45;&gt;26 -->
<g id="edge11" class="edge"><title>2&#45;&gt;26</title>
<path fill="none" stroke="black" d="M389.881,-71.4688C395.524,-65.0417 402.43,-57.1764 408.872,-49.8395"/>
<polygon fill="black" stroke="black" points="411.631,-52.0023 415.599,-42.1786 406.371,-47.3837 411.631,-52.0023"/>
<text text-anchor="middle" x="391.877" y="-49.4542" font-family="Times,serif" font-size="14.00"> 1 </text>
</g>
<!-- 34 -->
<g id="node20" class="node"><title>34</title>
<ellipse fill="none" stroke="orange" stroke-width="2" cx="324.46" cy="-125.137" rx="20.2975" ry="20.2975"/>
<text text-anchor="middle" x="324.46" y="-121.437" font-family="Times,serif" font-size="14.00">34</text>
</g>
<!-- 2&#45;&gt;34 -->
<g id="edge12" class="edge"><title>2&#45;&gt;34</title>
<path fill="none" stroke="black" d="M363.37,-95.9676C358.927,-99.2983 353.918,-103.053 349.009,-106.733"/>
<polygon fill="black" stroke="black" points="346.862,-103.968 340.96,-112.767 351.061,-109.569 346.862,-103.968"/>
<text text-anchor="middle" x="348.69" y="-90.1503" font-family="Times,serif" font-size="14.00"> 0 </text>
</g>
<!-- 3 -->
<g id="node4" class="node"><title>3</title>
<ellipse fill="none" stroke="black" stroke-width="2" cx="378" cy="-229" rx="18" ry="18"/>
<text text-anchor="middle" x="378" y="-225.3" font-family="Times,serif" font-size="14.00">3</text>
</g>
<!-- 11 -->
<g id="node21" class="node"><title>11</title>
<ellipse fill="none" stroke="red" stroke-width="2" cx="434.38" cy="-188.286" rx="20.2975" ry="20.2975"/>
<text text-anchor="middle" x="434.38" y="-184.586" font-family="Times,serif" font-size="14.00">11</text>
</g>
<!-- 3&#45;&gt;11 -->
<g id="edge13" class="edge"><title>3&#45;&gt;11</title>
<path fill="none" stroke="black" d="M392.813,-218.303C397.987,-214.567 403.942,-210.267 409.7,-206.109"/>
<polygon fill="black" stroke="black" points="411.82,-208.895 417.879,-200.203 407.722,-203.22 411.82,-208.895"/>
<text text-anchor="middle" x="408.756" y="-216.006" font-family="Times,serif" font-size="14.00"> 1 </text>
</g>
<!-- 19 -->
<g id="node22" class="node"><title>19</title>
<ellipse fill="none" stroke="blue" stroke-width="2" cx="407.272" cy="-285.939" rx="20.2975" ry="20.2975"/>
<text text-anchor="middle" x="407.272" y="-282.239" font-family="Times,serif" font-size="14.00">19</text>
</g>
<!-- 3&#45;&gt;19 -->
<g id="edge14" class="edge"><title>3&#45;&gt;19</title>
<path fill="none" stroke="black" d="M386.31,-245.164C388.535,-249.492 391.001,-254.289 393.438,-259.029"/>
<polygon fill="black" stroke="black" points="390.33,-260.639 398.015,-267.933 396.556,-257.439 390.33,-260.639"/>
<text text-anchor="middle" x="382.374" y="-255.896" font-family="Times,serif" font-size="14.00"> 0 </text>
</g>
<!-- 27 -->
<g id="node23" class="node"><title>27</title>
<ellipse fill="none" stroke="green" stroke-width="2" cx="323.448" cy="-274.957" rx="20.2975" ry="20.2975"/>
<text text-anchor="middle" x="323.448" y="-271.257" font-family="Times,serif" font-size="14.00">27</text>
</g>
<!-- 3&#45;&gt;27 -->
<g id="edge15" class="edge"><title>3&#45;&gt;27</title>
<path fill="none" stroke="black" d="M363.952,-240.835C358.743,-245.223 352.685,-250.327 346.866,-255.229"/>
<polygon fill="black" stroke="black" points="344.574,-252.583 339.181,-261.703 349.084,-257.937 344.574,-252.583"/>
<text text-anchor="middle" x="347.909" y="-236.832" font-family="Times,serif" font-size="14.00"> 0 </text>
</g>
<!-- 35 -->
<g id="node24" class="node"><title>35</title>
<ellipse fill="none" stroke="orange" stroke-width="2" cx="327.355" cy="-186.973" rx="20.2975" ry="20.2975"/>
<text text-anchor="middle" x="327.355" y="-183.273" font-family="Times,serif" font-size="14.00">35</text>
</g>
<!-- 3&#45;&gt;35 -->
<g id="edge16" class="edge"><title>3&#45;&gt;35</title>
<path fill="none" stroke="black" d="M363.893,-217.293C359.868,-213.954 355.37,-210.221 350.943,-206.547"/>
<polygon fill="black" stroke="black" points="353.099,-203.789 343.169,-200.096 348.629,-209.176 353.099,-203.789"/>
<text text-anchor="middle" x="349.918" y="-215.72" font-family="Times,serif" font-size="14.00"> 1 </text>
</g>
<!-- 4 -->
<g id="node5" class="node"><title>4</title>
<ellipse fill="none" stroke="black" stroke-width="2" cx="522" cy="-301" rx="18" ry="18"/>
<text text-anchor="middle" x="522" y="-297.3" font-family="Times,serif" font-size="14.00">4</text>
</g>
<!-- 12 -->
<g id="node25" class="node"><title>12</title>
<ellipse fill="none" stroke="red" stroke-width="2" cx="575.862" cy="-288.617" rx="20.2975" ry="20.2975"/>
<text text-anchor="middle" x="575.862" y="-284.917" font-family="Times,serif" font-size="14.00">12</text>
</g>
<!-- 4&#45;&gt;12 -->
<g id="edge17" class="edge"><title>4&#45;&gt;12</title>
<path fill="none" stroke="black" d="M539.636,-296.945C541.78,-296.452 544.014,-295.939 546.272,-295.42"/>
<polygon fill="black" stroke="black" points="547.174,-298.804 556.136,-293.152 545.606,-291.982 547.174,-298.804"/>
<text text-anchor="middle" x="546.704" y="-284.982" font-family="Times,serif" font-size="14.00"> 0 </text>
</g>
<!-- 20 -->
<g id="node26" class="node"><title>20</title>
<ellipse fill="none" stroke="blue" stroke-width="2" cx="544.283" cy="-371.284" rx="20.2975" ry="20.2975"/>
<text text-anchor="middle" x="544.283" y="-367.584" font-family="Times,serif" font-size="14.00">20</text>
</g>
<!-- 4&#45;&gt;20 -->
<g id="edge18" class="edge"><title>4&#45;&gt;20</title>
<path fill="none" stroke="black" d="M527.508,-318.374C529.799,-325.599 532.521,-334.183 535.098,-342.313"/>
<polygon fill="black" stroke="black" points="531.773,-343.408 538.132,-351.882 538.446,-341.292 531.773,-343.408"/>
<text text-anchor="middle" x="523.803" y="-334.143" font-family="Times,serif" font-size="14.00"> 0 </text>
</g>
<!-- 28 -->
<g id="node27" class="node"><title>28</title>
<ellipse fill="none" stroke="green" stroke-width="2" cx="467.214" cy="-337.222" rx="20.2975" ry="20.2975"/>
<text text-anchor="middle" x="467.214" y="-333.522" font-family="Times,serif" font-size="14.00">28</text>
</g>
<!-- 4&#45;&gt;28 -->
<g id="edge19" class="edge"><title>4&#45;&gt;28</title>
<path fill="none" stroke="black" d="M506.739,-311.09C502.386,-313.968 497.52,-317.185 492.731,-320.351"/>
<polygon fill="black" stroke="black" points="490.732,-317.477 484.321,-325.912 494.593,-323.316 490.732,-317.477"/>
<text text-anchor="middle" x="492.235" y="-304.521" font-family="Times,serif" font-size="14.00"> 1 </text>
</g>
<!-- 36 -->
<g id="node28" class="node"><title>36</title>
<ellipse fill="none" stroke="orange" stroke-width="2" cx="502.518" cy="-242.179" rx="20.2975" ry="20.2975"/>
<text text-anchor="middle" x="502.518" y="-238.479" font-family="Times,serif" font-size="14.00">36</text>
</g>
<!-- 4&#45;&gt;36 -->
<g id="edge20" class="edge"><title>4&#45;&gt;36</title>
<path fill="none" stroke="black" d="M516.26,-283.67C514.972,-279.781 513.571,-275.551 512.173,-271.329"/>
<polygon fill="black" stroke="black" points="515.435,-270.045 508.968,-261.653 508.79,-272.246 515.435,-270.045"/>
<text text-anchor="middle" x="506.717" y="-266.299" font-family="Times,serif" font-size="14.00"> 1 </text>
</g>
<!-- 5 -->
<g id="node6" class="node"><title>5</title>
<ellipse fill="none" stroke="black" stroke-width="2" cx="738" cy="-85" rx="18" ry="18"/>
<text text-anchor="middle" x="738" y="-81.3" font-family="Times,serif" font-size="14.00">5</text>
</g>
<!-- 13 -->
<g id="node29" class="node"><title>13</title>
<ellipse fill="none" stroke="red" stroke-width="2" cx="682.41" cy="-113.641" rx="20.2975" ry="20.2975"/>
<text text-anchor="middle" x="682.41" y="-109.941" font-family="Times,serif" font-size="14.00">13</text>
</g>
<!-- 5&#45;&gt;13 -->
<g id="edge21" class="edge"><title>5&#45;&gt;13</title>
<path fill="none" stroke="black" d="M721.921,-93.2841C718.065,-95.2707 713.841,-97.4471 709.634,-99.6144"/>
<polygon fill="black" stroke="black" points="707.889,-96.5763 700.602,-104.268 711.095,-102.799 707.889,-96.5763"/>
<text text-anchor="middle" x="712.027" y="-85.2493" font-family="Times,serif" font-size="14.00"> 1 </text>
</g>
<!-- 21 -->
<g id="node30" class="node"><title>21</title>
<ellipse fill="none" stroke="blue" stroke-width="2" cx="687.091" cy="-30.7864" rx="20.2975" ry="20.2975"/>
<text text-anchor="middle" x="687.091" y="-27.0864" font-family="Times,serif" font-size="14.00">21</text>
</g>
<!-- 5&#45;&gt;21 -->
<g id="edge22" class="edge"><title>5&#45;&gt;21</title>
<path fill="none" stroke="black" d="M725.676,-71.8764C720.462,-66.3238 714.236,-59.6933 708.322,-53.3959"/>
<polygon fill="black" stroke="black" points="710.495,-50.5974 701.099,-45.7036 705.393,-55.3893 710.495,-50.5974"/>
<text text-anchor="middle" x="709.499" y="-66.4362" font-family="Times,serif" font-size="14.00"> 0 </text>
</g>
<!-- 29 -->
<g id="node31" class="node"><title>29</title>
<ellipse fill="none" stroke="green" stroke-width="2" cx="782.24" cy="-25.3219" rx="20.2975" ry="20.2975"/>
<text text-anchor="middle" x="782.24" y="-21.6219" font-family="Times,serif" font-size="14.00">29</text>
</g>
<!-- 5&#45;&gt;29 -->
<g id="edge23" class="edge"><title>5&#45;&gt;29</title>
<path fill="none" stroke="black" d="M748.936,-70.2481C753.469,-64.1322 758.854,-56.8688 763.957,-49.9846"/>
<polygon fill="black" stroke="black" points="767.042,-51.7001 770.186,-41.5824 761.419,-47.5315 767.042,-51.7001"/>
<text text-anchor="middle" x="748.946" y="-48.9164" font-family="Times,serif" font-size="14.00"> 0 </text>
</g>
<!-- 37 -->
<g id="node32" class="node"><title>37</title>
<ellipse fill="none" stroke="orange" stroke-width="2" cx="792.751" cy="-94.9441" rx="20.2975" ry="20.2975"/>
<text text-anchor="middle" x="792.751" y="-91.2441" font-family="Times,serif" font-size="14.00">37</text>
</g>
<!-- 5&#45;&gt;37 -->
<g id="edge24" class="edge"><title>5&#45;&gt;37</title>
<path fill="none" stroke="black" d="M755.928,-88.2561C758.107,-88.6519 760.377,-89.0642 762.673,-89.4812"/>
<polygon fill="black" stroke="black" points="762.235,-92.9587 772.699,-91.3022 763.486,-86.0714 762.235,-92.9587"/>
<text text-anchor="middle" x="763.05" y="-77.6686" font-family="Times,serif" font-size="14.00"> 2 </text>
</g>
<!-- 6 -->
<g id="node7" class="node"><title>6</title>
<ellipse fill="none" stroke="black" stroke-width="2" cx="738" cy="-301" rx="18" ry="18"/>
<text text-anchor="middle" x="738" y="-297.3" font-family="Times,serif" font-size="14.00">6</text>
</g>
<!-- 14 -->
<g id="node37" class="node"><title>14</title>
<ellipse fill="none" stroke="red" stroke-width="2" cx="680.696" cy="-311.17" rx="20.2975" ry="20.2975"/>
<text text-anchor="middle" x="680.696" y="-307.47" font-family="Times,serif" font-size="14.00">14</text>
</g>
<!-- 6&#45;&gt;14 -->
<g id="edge29" class="edge"><title>6&#45;&gt;14</title>
<path fill="none" stroke="black" d="M720.183,-304.162C717.191,-304.693 714.014,-305.257 710.813,-305.825"/>
<polygon fill="black" stroke="black" points="709.935,-302.426 700.701,-307.62 711.158,-309.319 709.935,-302.426"/>
<text text-anchor="middle" x="707.998" y="-308.794" font-family="Times,serif" font-size="14.00"> 2 </text>
</g>
<!-- 22 -->
<g id="node38" class="node"><title>22</title>
<ellipse fill="none" stroke="blue" stroke-width="2" cx="810.866" cy="-304.335" rx="20.2975" ry="20.2975"/>
<text text-anchor="middle" x="810.866" y="-300.635" font-family="Times,serif" font-size="14.00">22</text>
</g>
<!-- 6&#45;&gt;22 -->
<g id="edge30" class="edge"><title>6&#45;&gt;22</title>
<path fill="none" stroke="black" d="M756.012,-301.824C763.361,-302.161 772.067,-302.559 780.353,-302.938"/>
<polygon fill="black" stroke="black" points="780.34,-306.441 790.49,-303.402 780.661,-299.449 780.34,-306.441"/>
<text text-anchor="middle" x="775.682" y="-306.181" font-family="Times,serif" font-size="14.00"> 0 </text>
</g>
<!-- 30 -->
<g id="node39" class="node"><title>30</title>
<ellipse fill="none" stroke="green" stroke-width="2" cx="776.704" cy="-370.791" rx="20.2975" ry="20.2975"/>
<text text-anchor="middle" x="776.704" y="-367.091" font-family="Times,serif" font-size="14.00">30</text>
</g>
<!-- 6&#45;&gt;30 -->
<g id="edge31" class="edge"><title>6&#45;&gt;30</title>
<path fill="none" stroke="black" d="M746.783,-316.837C751.265,-324.92 756.84,-334.972 761.958,-344.201"/>
<polygon fill="black" stroke="black" points="758.956,-346.005 766.867,-353.053 765.078,-342.61 758.956,-346.005"/>
<text text-anchor="middle" x="746.87" y="-334.319" font-family="Times,serif" font-size="14.00"> 0 </text>
</g>
<!-- 38 -->
<g id="node40" class="node"><title>38</title>
<ellipse fill="none" stroke="orange" stroke-width="2" cx="704.925" cy="-369.915" rx="20.2975" ry="20.2975"/>
<text text-anchor="middle" x="704.925" y="-366.215" font-family="Times,serif" font-size="14.00">38</text>
</g>
<!-- 6&#45;&gt;38 -->
<g id="edge32" class="edge"><title>6&#45;&gt;38</title>
<path fill="none" stroke="black" d="M730.162,-317.332C726.608,-324.735 722.306,-333.699 718.268,-342.113"/>
<polygon fill="black" stroke="black" points="715.047,-340.736 713.875,-351.265 721.358,-343.764 715.047,-340.736"/>
<text text-anchor="middle" x="716.715" y="-333.522" font-family="Times,serif" font-size="14.00"> 1 </text>
</g>
<!-- 7 -->
<g id="node8" class="node"><title>7</title>
<ellipse fill="none" stroke="black" stroke-width="4" cx="738" cy="-229" rx="18" ry="18"/>
<text text-anchor="middle" x="738" y="-225.3" font-family="Times,serif" font-size="14.00">7</text>
</g>
<!-- 15 -->
<g id="node33" class="node"><title>15</title>
<ellipse fill="none" stroke="red" stroke-width="2" cx="686.728" cy="-245.851" rx="20.2975" ry="20.2975"/>
<text text-anchor="middle" x="686.728" y="-242.151" font-family="Times,serif" font-size="14.00">15</text>
</g>
<!-- 7&#45;&gt;15 -->
<g id="edge25" class="edge"><title>7&#45;&gt;15</title>
<path fill="none" stroke="black" d="M720.641,-234.705C719.044,-235.23 717.398,-235.771 715.733,-236.319"/>
<polygon fill="black" stroke="black" points="714.592,-233.009 706.185,-239.457 716.777,-239.659 714.592,-233.009"/>
<text text-anchor="middle" x="714.437" y="-224.312" font-family="Times,serif" font-size="14.00"> 0 </text>
</g>
<!-- 23 -->
<g id="node34" class="node"><title>23</title>
<ellipse fill="none" stroke="blue" stroke-width="2" cx="786.028" cy="-173.926" rx="20.2975" ry="20.2975"/>
<text text-anchor="middle" x="786.028" y="-170.226" font-family="Times,serif" font-size="14.00">23</text>
</g>
<!-- 7&#45;&gt;23 -->
<g id="edge26" class="edge"><title>7&#45;&gt;23</title>
<path fill="none" stroke="black" d="M749.872,-215.386C754.716,-209.832 760.454,-203.252 765.916,-196.989"/>
<polygon fill="black" stroke="black" points="768.663,-199.164 772.597,-189.327 763.387,-194.563 768.663,-199.164"/>
<text text-anchor="middle" x="750.394" y="-194.987" font-family="Times,serif" font-size="14.00"> 0 </text>
</g>
<!-- 31 -->
<g id="node35" class="node"><title>31</title>
<ellipse fill="none" stroke="green" stroke-width="2" cx="809.569" cy="-245.121" rx="20.2975" ry="20.2975"/>
<text text-anchor="middle" x="809.569" y="-241.421" font-family="Times,serif" font-size="14.00">31</text>
</g>
<!-- 7&#45;&gt;31 -->
<g id="edge27" class="edge"><title>7&#45;&gt;31</title>
<path fill="none" stroke="black" d="M755.691,-232.985C762.967,-234.624 771.598,-236.568 779.795,-238.415"/>
<polygon fill="black" stroke="black" points="779.288,-241.888 789.812,-240.671 780.826,-235.059 779.288,-241.888"/>
<text text-anchor="middle" x="775.243" y="-239.5" font-family="Times,serif" font-size="14.00"> 0 </text>
</g>
<!-- 39 -->
<g id="node36" class="node"><title>39</title>
<ellipse fill="none" stroke="orange" stroke-width="2" cx="693.025" cy="-178.283" rx="20.2975" ry="20.2975"/>
<text text-anchor="middle" x="693.025" y="-174.583" font-family="Times,serif" font-size="14.00">39</text>
</g>
<!-- 7&#45;&gt;39 -->
<g id="edge28" class="edge"><title>7&#45;&gt;39</title>
<path fill="none" stroke="black" d="M725.948,-215.409C722.147,-211.123 717.836,-206.261 713.614,-201.5"/>
<polygon fill="black" stroke="black" points="715.954,-198.864 706.701,-193.704 710.717,-203.508 715.954,-198.864"/>
<text text-anchor="middle" x="727.281" y="-197.255" font-family="Times,serif" font-size="14.00"> 0 </text>
</g>
</g>
</svg>
