<?xml version="1.0" encoding="UTF-8" standalone="no"?>
<!DOCTYPE svg PUBLIC "-//W3C//DTD SVG 1.1//EN"
 "http://www.w3.org/Graphics/SVG/1.1/DTD/svg11.dtd">
<!-- Generated by graphviz version 2.38.0 (20140413.2041)
 -->
<!-- Title: G Pages: 1 -->
<svg width="692pt" height="260pt"
 viewBox="0.00 0.00 692.00 260.00" xmlns="http://www.w3.org/2000/svg" xmlns:xlink="http://www.w3.org/1999/xlink">
<g id="graph0" class="graph" transform="scale(1 1) rotate(0) translate(4 256)">
<title>G</title>
<polygon fill="white" stroke="none" points="-4,4 -4,-256 688,-256 688,4 -4,4"/>
<!-- 0 -->
<g id="node1" class="node"><title>0</title>
<ellipse fill="none" stroke="black" stroke-width="4" cx="18" cy="-18" rx="18" ry="18"/>
<text text-anchor="middle" x="18" y="-14.3" font-family="Times,serif" font-size="14.00">0</text>
</g>
<!-- 2 -->
<g id="node3" class="node"><title>2</title>
<ellipse fill="none" stroke="black" stroke-width="2" cx="306" cy="-18" rx="18" ry="18"/>
<text text-anchor="middle" x="306" y="-14.3" font-family="Times,serif" font-size="14.00">2</text>
</g>
<!-- 0&#45;&gt;2 -->
<g id="edge1" class="edge"><title>0&#45;&gt;2</title>
<path fill="none" stroke="red" d="M36.0157,-18C84.7061,-18 219.204,-18 277.943,-18"/>
<polygon fill="red" stroke="red" points="277.991,-21.5001 287.991,-18 277.991,-14.5001 277.991,-21.5001"/>
<text text-anchor="middle" x="147.979" y="-21.8" font-family="Times,serif" font-size="14.00">1/4</text>
</g>
<!-- 4 -->
<g id="node5" class="node"><title>4</title>
<ellipse fill="none" stroke="black" stroke-width="2" cx="450" cy="-234" rx="18" ry="18"/>
<text text-anchor="middle" x="450" y="-230.3" font-family="Times,serif" font-size="14.00">4</text>
</g>
<!-- 0&#45;&gt;4 -->
<g id="edge6" class="edge"><title>0&#45;&gt;4</title>
<path fill="none" stroke="green" d="M34.1465,-26.0732C99.3667,-58.6834 343.711,-180.855 424.147,-221.073"/>
<polygon fill="green" stroke="green" points="423.032,-224.429 433.541,-225.771 426.162,-218.168 423.032,-224.429"/>
<text text-anchor="middle" x="220.147" y="-127.373" font-family="Times,serif" font-size="14.00">1/2</text>
</g>
<!-- 5 -->
<g id="node6" class="node"><title>5</title>
<ellipse fill="none" stroke="black" stroke-width="2" cx="666" cy="-18" rx="18" ry="18"/>
<text text-anchor="middle" x="666" y="-14.3" font-family="Times,serif" font-size="14.00">5</text>
</g>
<!-- 0&#45;&gt;5 -->
<g id="edge2" class="edge"><title>0&#45;&gt;5</title>
<path fill="none" stroke="red" d="M36.0075,-18C126.016,-18 527.182,-18 637.719,-18"/>
<polygon fill="red" stroke="red" points="637.772,-21.5001 647.772,-18 637.772,-14.5001 637.772,-21.5001"/>
<text text-anchor="middle" x="345.863" y="-21.8" font-family="Times,serif" font-size="14.00">3/4</text>
</g>
<!-- 1 -->
<g id="node2" class="node"><title>1</title>
<ellipse fill="none" stroke="black" stroke-width="2" cx="162" cy="-90" rx="18" ry="18"/>
<text text-anchor="middle" x="162" y="-86.3" font-family="Times,serif" font-size="14.00">1</text>
</g>
<!-- 3 -->
<g id="node4" class="node"><title>3</title>
<ellipse fill="none" stroke="black" stroke-width="2" cx="306" cy="-162" rx="18" ry="18"/>
<text text-anchor="middle" x="306" y="-158.3" font-family="Times,serif" font-size="14.00">3</text>
</g>
<!-- 2&#45;&gt;3 -->
<g id="edge3" class="edge"><title>2&#45;&gt;3</title>
<path fill="none" stroke="red" d="M306,-36.2377C306,-60.799 306,-104.753 306,-133.646"/>
<polygon fill="red" stroke="red" points="302.5,-133.91 306,-143.91 309.5,-133.91 302.5,-133.91"/>
<text text-anchor="middle" x="297" y="-88.7418" font-family="Times,serif" font-size="14.00">1/3</text>
</g>
<!-- 7 -->
<g id="node8" class="node"><title>7</title>
<ellipse fill="none" stroke="black" stroke-width="4" cx="666" cy="-162" rx="18" ry="18"/>
<text text-anchor="middle" x="666" y="-158.3" font-family="Times,serif" font-size="14.00">7</text>
</g>
<!-- 3&#45;&gt;7 -->
<g id="edge4" class="edge"><title>3&#45;&gt;7</title>
<path fill="none" stroke="red" d="M324.347,-162C382.966,-162 566.045,-162 637.257,-162"/>
<polygon fill="red" stroke="red" points="637.69,-165.5 647.69,-162 637.69,-158.5 637.69,-165.5"/>
<text text-anchor="middle" x="471.802" y="-165.8" font-family="Times,serif" font-size="14.00">1/1</text>
</g>
<!-- 4&#45;&gt;7 -->
<g id="edge7" class="edge"><title>4&#45;&gt;7</title>
<path fill="none" stroke="orange" d="M467.311,-228.23C504.925,-215.692 594.335,-185.888 639.263,-170.912"/>
<polygon fill="orange" stroke="orange" points="640.526,-174.181 648.906,-167.698 638.313,-167.54 640.526,-174.181"/>
<text text-anchor="middle" x="544.287" y="-203.371" font-family="Times,serif" font-size="14.00">1/1</text>
</g>
<!-- 5&#45;&gt;7 -->
<g id="edge5" class="edge"><title>5&#45;&gt;7</title>
<path fill="none" stroke="red" d="M661.386,-35.6572C658.865,-60.1639 658.576,-104.752 660.517,-133.87"/>
<polygon fill="red" stroke="red" points="657.059,-134.521 661.371,-144.198 664.035,-133.944 657.059,-134.521"/>
<text text-anchor="middle" x="651.952" y="-88.5637" font-family="Times,serif" font-size="14.00">1/1</text>
</g>
<!-- 5&#45;&gt;7 -->
<g id="edge8" class="edge"><title>5&#45;&gt;7</title>
<path fill="none" stroke="orange" d="M670.614,-35.6572C673.135,-60.1639 673.424,-104.752 671.483,-133.87"/>
<polygon fill="orange" stroke="orange" points="667.965,-133.944 670.629,-144.198 674.941,-134.521 667.965,-133.944"/>
<text text-anchor="middle" x="662.048" y="-73.5637" font-family="Times,serif" font-size="14.00">2/2</text>
</g>
<!-- 6 -->
<g id="node7" class="node"><title>6</title>
<ellipse fill="none" stroke="black" stroke-width="2" cx="666" cy="-234" rx="18" ry="18"/>
<text text-anchor="middle" x="666" y="-230.3" font-family="Times,serif" font-size="14.00">6</text>
</g>
</g>
</svg>
