<?xml version="1.0" encoding="UTF-8" standalone="no"?>
<!DOCTYPE svg PUBLIC "-//W3C//DTD SVG 1.1//EN"
 "http://www.w3.org/Graphics/SVG/1.1/DTD/svg11.dtd">
<!-- Generated by graphviz version 2.38.0 (20140413.2041)
 -->
<!-- Title: G Pages: 1 -->
<svg width="618pt" height="173pt"
 viewBox="0.00 0.00 618.00 173.00" xmlns="http://www.w3.org/2000/svg" xmlns:xlink="http://www.w3.org/1999/xlink">
<g id="graph0" class="graph" transform="scale(1 1) rotate(0) translate(4 169)">
<title>G</title>
<polygon fill="white" stroke="none" points="-4,4 -4,-169 614,-169 614,4 -4,4"/>
<!-- a1 -->
<!-- w -->
<g id="node2" class="node"><title>w</title>
<ellipse fill="none" stroke="black" cx="118" cy="-120" rx="27" ry="18"/>
<text text-anchor="middle" x="118" y="-116.3" font-family="Times,serif" font-size="14.00">w</text>
</g>
<!-- a1&#45;&gt;w -->
<g id="edge1" class="edge"><title>a1&#45;&gt;w</title>
<path fill="none" stroke="red" d="M51.8504,-139.764C61.5273,-136.829 72.8781,-133.385 83.3702,-130.202"/>
<polygon fill="red" stroke="red" points="84.5305,-133.508 93.0838,-127.255 82.4984,-126.809 84.5305,-133.508"/>
</g>
<!-- b1 -->
<!-- w&#45;&gt;b1 -->
<g id="edge3" class="edge"><title>w&#45;&gt;b1</title>
<path fill="none" stroke="blue" d="M144.742,-124.049C153.396,-125.411 163.208,-126.954 172.478,-128.412"/>
<polygon fill="blue" stroke="blue" points="172.2,-131.912 182.623,-130.008 173.288,-124.997 172.2,-131.912"/>
</g>
<!-- b2 -->
<!-- w&#45;&gt;b2 -->
<g id="edge4" class="edge"><title>w&#45;&gt;b2</title>
<path fill="none" stroke="purple" d="M141,-110.112C151.885,-105.22 165.208,-99.2321 177.099,-93.8883"/>
<polygon fill="purple" stroke="purple" points="178.567,-97.0657 186.253,-89.7739 175.697,-90.6809 178.567,-97.0657"/>
</g>
<!-- a2 -->
<!-- a2&#45;&gt;w -->
<g id="edge2" class="edge"><title>a2&#45;&gt;w</title>
<path fill="none" stroke="orange" d="M51.8504,-100.236C61.5273,-103.171 72.8781,-106.615 83.3702,-109.798"/>
<polygon fill="orange" stroke="orange" points="82.4984,-113.191 93.0838,-112.745 84.5305,-106.492 82.4984,-113.191"/>
</g>
<!-- c1 -->
<!-- b2&#45;&gt;c1 -->
<g id="edge5" class="edge"><title>b2&#45;&gt;c1</title>
<path fill="none" stroke="black" stroke-dasharray="5,2" d="M236.222,-80C244.551,-80 253.914,-80 262.816,-80"/>
<polygon fill="black" stroke="black" points="262.966,-83.5001 272.966,-80 262.966,-76.5001 262.966,-83.5001"/>
</g>
<!-- w1 -->
<g id="node7" class="node"><title>w1</title>
<ellipse fill="none" stroke="black" cx="391" cy="-45" rx="27" ry="18"/>
</g>
<!-- c1&#45;&gt;w1 -->
<g id="edge6" class="edge"><title>c1&#45;&gt;w1</title>
<path fill="none" stroke="red" d="M323.92,-70.9866C334.277,-66.9136 346.692,-62.0313 357.951,-57.6037"/>
<polygon fill="red" stroke="red" points="359.441,-60.7787 367.466,-53.8617 356.879,-54.2643 359.441,-60.7787"/>
</g>
<!-- w2 -->
<g id="node9" class="node"><title>w2</title>
<ellipse fill="none" stroke="black" cx="492" cy="-45" rx="27" ry="18"/>
</g>
<!-- w1&#45;&gt;w2 -->
<g id="edge8" class="edge"><title>w1&#45;&gt;w2</title>
<path fill="none" stroke="black" d="M418.011,-45C429.177,-45 442.419,-45 454.538,-45"/>
<polygon fill="black" stroke="black" points="454.819,-48.5001 464.819,-45 454.819,-41.5001 454.819,-48.5001"/>
<text text-anchor="middle" x="441.5" y="-48.8" font-family="Times,serif" font-size="14.00">w</text>
</g>
<!-- c2 -->
<!-- c2&#45;&gt;w1 -->
<g id="edge7" class="edge"><title>c2&#45;&gt;w1</title>
<path fill="none" stroke="orange" d="M326.266,-31.3938C335.173,-33.2953 345.352,-35.4685 354.923,-37.5116"/>
<polygon fill="orange" stroke="orange" points="354.469,-40.9935 364.979,-39.6585 355.93,-34.1477 354.469,-40.9935"/>
</g>
<!-- d1 -->
<!-- w2&#45;&gt;d1 -->
<g id="edge9" class="edge"><title>w2&#45;&gt;d1</title>
<path fill="none" stroke="blue" d="M516.85,-52.2355C526.527,-55.1712 537.878,-58.6147 548.37,-61.7977"/>
<polygon fill="blue" stroke="blue" points="547.498,-65.1907 558.084,-64.7445 549.531,-58.4921 547.498,-65.1907"/>
</g>
<!-- d2 -->
<!-- w2&#45;&gt;d2 -->
<g id="edge10" class="edge"><title>w2&#45;&gt;d2</title>
<path fill="none" stroke="purple" d="M516.85,-37.7645C526.527,-34.8288 537.878,-31.3853 548.37,-28.2023"/>
<polygon fill="purple" stroke="purple" points="549.531,-31.5079 558.084,-25.2555 547.498,-24.8093 549.531,-31.5079"/>
</g>
</g>
</svg>
